<?xml version="1.0" encoding="utf-8"?><svg xmlns="http://www.w3.org/2000/svg" xmlns:xlink="http://www.w3.org/1999/xlink"><symbol viewBox="0 0 400 300" class="aillustration astyles_illustrationTablet__1DWOa" id="Web_Developer_Two_Color" xmlns="http://www.w3.org/2000/svg"><path d="M118.26 98.45V62.51a10 10 0 0110-9.95H284a10 10 0 0110 9.95v55.62" fill="none" stroke="#e6e6e6" stroke-linecap="round" stroke-linejoin="round" stroke-dasharray="3 10"/><path fill="#e6e6e6" d="M194.85 35.72h48.48V69.4h-48.48z"/><path d="M207.35 52.24c1.46 0 1.66-.8 1.66-1.52a12.5 12.5 0 00-.16-1.72 10.88 10.88 0 01-.17-1.7c0-1.89 1.23-2.69 3-2.69h.44v1.13h-.37c-1.21 0-1.62.66-1.62 1.76a9.24 9.24 0 00.14 1.46 9.73 9.73 0 01.14 1.56 2 2 0 01-1.47 2.21 2 2 0 011.44 2.27 9.5 9.5 0 01-.14 1.55 9.6 9.6 0 00-.14 1.45c0 1.15.47 1.78 1.62 1.78h.37V61h-.44c-1.7 0-3-.74-3-2.81a10.75 10.75 0 01.17-1.68 11.52 11.52 0 00.18-1.71c0-.63-.2-1.52-1.66-1.52zM231.38 53.33c-1.46 0-1.66.8-1.66 1.51a12.36 12.36 0 00.16 1.72 12.38 12.38 0 01.17 1.71c0 1.88-1.23 2.68-3 2.68h-.43v-1.13h.38c1.21 0 1.62-.65 1.62-1.76a9.12 9.12 0 00-.14-1.45 9.94 9.94 0 01-.15-1.56 2 2 0 011.48-2.22 2 2 0 01-1.48-2.23 9.49 9.49 0 01.15-1.56 9.37 9.37 0 00.14-1.48c0-1.14-.47-1.78-1.62-1.78h-.37v-1.17h.43c1.7 0 3 .74 3 2.81a11.81 11.81 0 01-.17 1.68 11.8 11.8 0 00-.16 1.66c0 .64.2 1.52 1.66 1.52z" fill="#9e9e9e"/><path fill="#24285b" d="M68.95 81.78h100.79v100.79H68.95z"/><path fill="#34e7e4" d="M98.4 126h32.38v3.62H98.4z"/><path fill="#ffd200" d="M107.69 115.91h28.94v3.62h-28.94zM135.28 154.16h15.1v3.62h-15.1zM120.02 143.97h15.1v3.62h-15.1z"/><path fill="#34e7e4" d="M107.69 134.76h38.58v3.62h-38.58z"/><path fill="#fff" d="M86.39 134.76h14.51v3.62H86.39zM100.84 144.28h14.51v3.62h-14.51zM87.1 163.7h14.51v3.62H87.1zM77.11 126h14.51v3.62H77.11z"/><circle cx="75.55" cy="87.89" r="1.71" fill="#fff"/><circle cx="80.63" cy="87.89" r="1.71" fill="#34e7e4"/><circle cx="85.41" cy="87.89" r="1.71" fill="#ffd200"/><path fill="#fff" d="M77.11 98.45h14.51v3.62H77.11zM86.39 107.51h14.51v3.62H86.39z"/><path fill="#ffd200" d="M107.69 107.51h28.94v3.62h-28.94z"/><path fill="#fff" d="M86.39 115.91h14.51v3.62H86.39z"/><path fill="#34e7e4" d="M97.42 98.45h29.89v3.62H97.42z"/><path fill="#fff" d="M77.52 154.16h14.51v3.62H77.52z"/><path fill="#34e7e4" d="M97.82 154.16h29.89v3.62H97.82zM107.35 163.68h29.89v3.62h-29.89zM133.56 98.45h21.22v3.62h-21.22z"/><path fill="#f4a28c" d="M196.85 118.13l5.25 29.19-14.5 1.08 2.9-23.41 6.35-6.86z"/><path d="M189.89 128.63a8.12 8.12 0 004-2.49s-.09 4.14-4.55 8.32z" fill="#ce8172" opacity=".31"/><path d="M186.76 116.5s-1.4 6.76-.78 11.44a3.46 3.46 0 003.91 3c2.35-.34 5.43-1.49 6.62-5l2.75-5.75a6.2 6.2 0 00-1.94-6.9c-3.54-3.29-9.92-.95-10.56 3.21z" fill="#f4a28c"/><path d="M186.1 120.8l-2.22 2.42a1.1 1.1 0 00.48 1.8l2.57.81z" fill="#f4a28c"/><path d="M199 127.28l2.39-9.08s5.24-.89 3.67-4.31-3.67-1.15-3.74-5.08-3.26-4.72-5.53-2.52-1.21-.88-4-1.3-3.57.83-3.64 3-4.13-.15-5.19 2.56-1.2 5.34 5.82 5.79 1.98 6.2 10.22 10.94z" fill="#24285b"/><path d="M193.36 123.22s.36-2.63 2.32-2.2 1.46 4.25-1.28 4.29z" fill="#f4a28c"/><ellipse cx="198.56" cy="241.9" rx="96.76" ry="21.78" fill="#e6e6e6" opacity=".45"/><path d="M183.78 144.14s-40.92-11.82-40.73 17.9c.15 22.45 25.33 70.11 25.33 70.11h52s39.45-60.51 20.26-80-23.59-2.73-56.86-8.01z" fill="#34e7e4"/><path fill="#24285b" d="M168.3 239.43l31.64 8.53 28.07-14.24 4.26-7.6h-73.3l9.33 13.31z"/><path d="M217.44 148.4s-15.34 7.7-10.94 47.6c1.24 11.23-2.52 14-2.52 14l-43.85 4.39 8.25 17.75h52S243.2 195 245 175.87s-27.56-27.47-27.56-27.47z" opacity=".08"/><path d="M193 239.42s10.65 3.73 7 8.54-9.44-3.18-9.44-3.18z" fill="#34e7e4"/><path d="M193.28 237.56s-43-22-46.71-10.28 26 18.49 45.14 19.19zM203.73 239.29s34.33-34 41.37-24-19.14 25.51-37.17 32z" fill="#24285b"/><path d="M205.08 241.85s-10.17 9.06-4.28 11.73 7.13-6.29 7.13-6.29zM214.63 156.68c-.16-11.45 13.65-17.54 21.9-9.61 6.05 5.82 11.95 14.55 14.86 27.49 7.35 32.59 20.56 27.6 27 17.32s5.2-32.88 5.2-32.88l11.73.22s10.07 58.68-33.06 60.86c-33.2 1.67-47.26-35.95-47.63-63.4z" fill="#34e7e4"/><path d="M214.63 156.68c-.16-11.45 13.65-17.54 21.9-9.61 6.05 5.82 11.95 14.55 14.86 27.49 7.35 32.59 20.56 27.6 27 17.32s5.2-32.88 5.2-32.88l11.73.22s10.07 58.68-33.06 60.86c-33.2 1.67-47.26-35.95-47.63-63.4z" fill="#fff" opacity=".54"/><path fill="#24285b" d="M291.61 135.32h4.73v41.55h-4.73z"/><path fill="#ffd200" d="M172.73 220.85l-3.67-33.42h56.12l-5.6 35.13.8 4.5-48.24.38.59-6.59z"/><path d="M111.14 182.56s6.74-40.93 50.17-40.41l-34.83 40.41z" opacity=".28"/><circle cx="197.67" cy="205.43" r="4.81" fill="#fff"/><path d="M162.36 144.33a11.89 11.89 0 00-15.12 3.54c-8.54 11.41-27 38.54-26.19 58.22 1.1 25.55 56.82 22 56.82 22l-1.1-9.66S143 216 152.32 199.05c6.33-11.53 26.44-45.73 10.04-54.72z" fill="#34e7e4"/><path d="M162.36 144.33a11.89 11.89 0 00-15.12 3.54c-8.54 11.41-27 38.54-26.19 58.22 1.1 25.55 56.82 22 56.82 22l-1.1-9.66S143 216 152.32 199.05c6.33-11.53 26.44-45.73 10.04-54.72z" fill="#fff" opacity=".54"/><path d="M286.54 159.05s-1.32-10.12 7.64-8.94 8.88 8.37 1.14 9.1z" fill="#f4a28c"/><path fill="#ffd200" d="M268.04 106.65h51.21v32.74h-51.21z"/><path d="M287 130.54a1.2 1.2 0 01-.74-.25l-7.77-6.14a1.24 1.24 0 01-.46-.94 1.22 1.22 0 01.45-.94l7.77-6.25a1.2 1.2 0 111.5 1.87l-6.59 5.31 6.59 5.2a1.21 1.21 0 01.19 1.69 1.17 1.17 0 01-.94.45zM301 130.54a1.2 1.2 0 01-.75-2.14l6.59-5.2-6.6-5.31a1.21 1.21 0 01-.18-1.69 1.2 1.2 0 011.69-.18l7.77 6.25a1.18 1.18 0 01.44.94 1.23 1.23 0 01-.45.94l-7.77 6.14a1.2 1.2 0 01-.74.25zM290.73 130.54a1.23 1.23 0 01-.49-.1 1.2 1.2 0 01-.6-1.59l5.66-12.4a1.2 1.2 0 012.19 1l-5.66 12.39a1.22 1.22 0 01-1.1.7z" fill="#fff"/><path d="M177 220.67s8.56-3 10.61.55-1 8.38-9.76 6.87z" fill="#f4a28c"/></symbol><symbol viewBox="0 0 24 24" id="at" xmlns="http://www.w3.org/2000/svg"><path d="M12 0a12 12 0 107.092 21.681l-1.775-2.419A9 9 0 1121 12v1.5a1.5 1.5 0 01-3 0V12a6.023 6.023 0 10-1.922 4.388A4.48 4.48 0 0024 13.5V12A12.013 12.013 0 0012 0zm0 15a3 3 0 113-3 3 3 0 01-3 3z"/></symbol><symbol viewBox="0 0 24 24" id="contact" xmlns="http://www.w3.org/2000/svg"><path d="M18.5 1h-13A5.506 5.506 0 000 6.5v11A5.506 5.506 0 005.5 23h13a5.506 5.506 0 005.5-5.5v-11A5.506 5.506 0 0018.5 1zm0 3a2.476 2.476 0 011.643.631l-6.5 6.5a2.373 2.373 0 01-3.278 0l-6.5-6.5A2.476 2.476 0 015.5 4zm0 16h-13A2.5 2.5 0 013 17.5V8.017l5.239 5.239a5.317 5.317 0 007.521 0L21 8.017V17.5a2.5 2.5 0 01-2.5 2.5z"/></symbol><symbol viewBox="0 0 24 24" id="envelope_(2)" xmlns="http://www.w3.org/2000/svg"><path d="M18.5 1h-13A5.506 5.506 0 000 6.5v11A5.506 5.506 0 005.5 23h13a5.506 5.506 0 005.5-5.5v-11A5.506 5.506 0 0018.5 1zm0 3a2.476 2.476 0 011.643.631l-6.5 6.5a2.373 2.373 0 01-3.278 0l-6.5-6.5A2.476 2.476 0 015.5 4zm0 16h-13A2.5 2.5 0 013 17.5V8.017l5.239 5.239a5.317 5.317 0 007.521 0L21 8.017V17.5a2.5 2.5 0 01-2.5 2.5z"/></symbol><symbol viewBox="0 0 24 24" id="github" xmlns="http://www.w3.org/2000/svg"><path d="M12 .296c-6.627 0-12 5.372-12 12 0 5.302 3.438 9.8 8.206 11.387.6.111.82-.26.82-.577 0-.286-.011-1.231-.016-2.234-3.338.726-4.043-1.416-4.043-1.416-.546-1.387-1.332-1.756-1.332-1.756-1.089-.745.082-.729.082-.729 1.205.085 1.839 1.237 1.839 1.237 1.07 1.834 2.807 1.304 3.492.997.108-.776.419-1.305.762-1.605-2.665-.303-5.467-1.332-5.467-5.93 0-1.31.469-2.381 1.237-3.221-.125-.303-.536-1.523.116-3.176 0 0 1.008-.322 3.301 1.23A11.509 11.509 0 0112 6.099c1.02.005 2.047.138 3.006.404 2.29-1.553 3.297-1.23 3.297-1.23.653 1.653.242 2.873.118 3.176.769.84 1.235 1.911 1.235 3.221 0 4.609-2.807 5.624-5.479 5.921.43.372.814 1.103.814 2.222 0 1.606-.014 2.898-.014 3.293 0 .319.216.694.824.576 4.766-1.589 8.2-6.085 8.2-11.385C24 5.669 18.627.296 12 .296z" fill-rule="evenodd" clip-rule="evenodd"/><path d="M4.545 17.526c-.026.06-.12.078-.206.037-.087-.039-.136-.121-.108-.18.026-.061.12-.078.207-.037.087.038.137.12.107.18zM5.031 18.068c-.057.053-.169.028-.245-.055-.079-.084-.093-.196-.035-.249.059-.053.167-.028.246.056.079.083.094.194.034.248zM5.504 18.759c-.074.051-.194.003-.268-.103-.074-.107-.074-.235.002-.286.074-.051.193-.005.268.101.073.108.073.236-.002.288zM6.152 19.427c-.066.073-.206.053-.308-.046-.105-.097-.134-.234-.068-.307.067-.073.208-.052.311.046.104.097.135.235.065.307zM7.047 19.814c-.029.094-.164.137-.3.097-.136-.041-.225-.151-.197-.246.028-.095.164-.139.301-.096.135.04.224.15.196.245zM8.029 19.886c.003.099-.112.181-.255.183-.143.003-.26-.077-.261-.174 0-.1.113-.181.256-.184.143-.003.26.077.26.175zM8.943 19.731c.017.096-.082.196-.224.222-.139.026-.268-.034-.286-.13-.017-.099.084-.198.223-.224.141-.025.269.033.287.132z"/></symbol><symbol viewBox="0 0 24 24" id="info" xmlns="http://www.w3.org/2000/svg"><path d="M12 0a12 12 0 1012 12A12.013 12.013 0 0012 0zm0 21a9 9 0 119-9 9.011 9.011 0 01-9 9z"/><path d="M11.545 9.545h-.3a1.577 1.577 0 00-1.605 1.393A1.5 1.5 0 0011 12.532v4.65a1.5 1.5 0 003 0V12a2.455 2.455 0 00-2.455-2.455zM11.83 8.466a1.716 1.716 0 10-1.716-1.716 1.715 1.715 0 001.716 1.716z"/></symbol><symbol viewBox="0 0 24 24" id="linkedin" xmlns="http://www.w3.org/2000/svg"><path d="M23.002 21.584h.227l-.435-.658c.266 0 .407-.169.409-.376l-.001-.025c0-.282-.17-.417-.519-.417h-.564v1.476h.212v-.643h.261l.41.643zm-.425-.81h-.246v-.499h.312c.161 0 .345.026.345.237 0 .242-.186.262-.412.262M17.291 19.073h-3.007v-4.709c0-1.123-.02-2.568-1.564-2.568-1.566 0-1.806 1.223-1.806 2.487v4.79H7.908V9.389h2.887v1.323h.04a3.165 3.165 0 012.848-1.564c3.048 0 3.609 2.005 3.609 4.612l-.001 5.313zM4.515 8.065a1.745 1.745 0 110-3.49 1.745 1.745 0 010 3.49m1.503 11.008h-3.01V9.389h3.01v9.684zM18.79 1.783H1.497A1.481 1.481 0 000 3.246V20.61c.01.818.68 1.473 1.497 1.464H18.79a1.485 1.485 0 001.503-1.464V3.245a1.484 1.484 0 00-1.503-1.463"/><path d="M22.603 19.451a1.383 1.383 0 10.027 0h-.027m.032 2.608c-.67.011-1.254-.522-1.265-1.192a1.213 1.213 0 112.426-.04v.02a1.187 1.187 0 01-1.161 1.212h-.031"/></symbol><symbol viewBox="0 0 24 24" id="paint-roller" xmlns="http://www.w3.org/2000/svg"><path d="M20 3c0-1.654-1.346-3-3-3H3C1.346 0 0 1.346 0 3v2c0 1.654 1.346 3 3 3h14c1.654 0 3-1.346 3-3 1.103 0 2 .897 2 2v1c0 1.103-.897 2-2 2h-7c-2.206 0-4 1.794-4 4v.184A2.996 2.996 0 007 17v4c0 1.654 1.346 3 3 3s3-1.346 3-3v-4a2.996 2.996 0 00-2-2.816V14c0-1.103.897-2 2-2h7c2.206 0 4-1.794 4-4V7c0-2.206-1.794-4-4-4zm-2 2c0 .552-.449 1-1 1H3c-.551 0-1-.448-1-1V3c0-.552.449-1 1-1h14c.551 0 1 .448 1 1v2zm-7 16a1.001 1.001 0 01-2 0v-4a1.001 1.001 0 012 0v4z"/></symbol></svg>