<?xml version="1.0" encoding="utf-8"?><svg xmlns="http://www.w3.org/2000/svg" xmlns:xlink="http://www.w3.org/1999/xlink"><symbol viewBox="0 0 400 300" class="aillustration astyles_illustrationTablet__1DWOa" id="Web_Developer_Two_Color" xmlns="http://www.w3.org/2000/svg"><path d="M118.26 98.45V62.51a10 10 0 0110-9.95H284a10 10 0 0110 9.95v55.62" fill="none" stroke="#e6e6e6" stroke-linecap="round" stroke-linejoin="round" stroke-dasharray="3 10"/><path fill="#e6e6e6" d="M194.85 35.72h48.48V69.4h-48.48z"/><path d="M207.35 52.24c1.46 0 1.66-.8 1.66-1.52a12.5 12.5 0 00-.16-1.72 10.88 10.88 0 01-.17-1.7c0-1.89 1.23-2.69 3-2.69h.44v1.13h-.37c-1.21 0-1.62.66-1.62 1.76a9.24 9.24 0 00.14 1.46 9.73 9.73 0 01.14 1.56 2 2 0 01-1.47 2.21 2 2 0 011.44 2.27 9.5 9.5 0 01-.14 1.55 9.6 9.6 0 00-.14 1.45c0 1.15.47 1.78 1.62 1.78h.37V61h-.44c-1.7 0-3-.74-3-2.81a10.75 10.75 0 01.17-1.68 11.52 11.52 0 00.18-1.71c0-.63-.2-1.52-1.66-1.52zM231.38 53.33c-1.46 0-1.66.8-1.66 1.51a12.36 12.36 0 00.16 1.72 12.38 12.38 0 01.17 1.71c0 1.88-1.23 2.68-3 2.68h-.43v-1.13h.38c1.21 0 1.62-.65 1.62-1.76a9.12 9.12 0 00-.14-1.45 9.94 9.94 0 01-.15-1.56 2 2 0 011.48-2.22 2 2 0 01-1.48-2.23 9.49 9.49 0 01.15-1.56 9.37 9.37 0 00.14-1.48c0-1.14-.47-1.78-1.62-1.78h-.37v-1.17h.43c1.7 0 3 .74 3 2.81a11.81 11.81 0 01-.17 1.68 11.8 11.8 0 00-.16 1.66c0 .64.2 1.52 1.66 1.52z" fill="#9e9e9e"/><path fill="#24285b" d="M68.95 81.78h100.79v100.79H68.95z"/><path fill="#34e7e4" d="M98.4 126h32.38v3.62H98.4z"/><path fill="#ffd200" d="M107.69 115.91h28.94v3.62h-28.94zM135.28 154.16h15.1v3.62h-15.1zM120.02 143.97h15.1v3.62h-15.1z"/><path fill="#34e7e4" d="M107.69 134.76h38.58v3.62h-38.58z"/><path fill="#fff" d="M86.39 134.76h14.51v3.62H86.39zM100.84 144.28h14.51v3.62h-14.51zM87.1 163.7h14.51v3.62H87.1zM77.11 126h14.51v3.62H77.11z"/><circle cx="75.55" cy="87.89" r="1.71" fill="#fff"/><circle cx="80.63" cy="87.89" r="1.71" fill="#34e7e4"/><circle cx="85.41" cy="87.89" r="1.71" fill="#ffd200"/><path fill="#fff" d="M77.11 98.45h14.51v3.62H77.11zM86.39 107.51h14.51v3.62H86.39z"/><path fill="#ffd200" d="M107.69 107.51h28.94v3.62h-28.94z"/><path fill="#fff" d="M86.39 115.91h14.51v3.62H86.39z"/><path fill="#34e7e4" d="M97.42 98.45h29.89v3.62H97.42z"/><path fill="#fff" d="M77.52 154.16h14.51v3.62H77.52z"/><path fill="#34e7e4" d="M97.82 154.16h29.89v3.62H97.82zM107.35 163.68h29.89v3.62h-29.89zM133.56 98.45h21.22v3.62h-21.22z"/><path fill="#f4a28c" d="M196.85 118.13l5.25 29.19-14.5 1.08 2.9-23.41 6.35-6.86z"/><path d="M189.89 128.63a8.12 8.12 0 004-2.49s-.09 4.14-4.55 8.32z" fill="#ce8172" opacity=".31"/><path d="M186.76 116.5s-1.4 6.76-.78 11.44a3.46 3.46 0 003.91 3c2.35-.34 5.43-1.49 6.62-5l2.75-5.75a6.2 6.2 0 00-1.94-6.9c-3.54-3.29-9.92-.95-10.56 3.21z" fill="#f4a28c"/><path d="M186.1 120.8l-2.22 2.42a1.1 1.1 0 00.48 1.8l2.57.81z" fill="#f4a28c"/><path d="M199 127.28l2.39-9.08s5.24-.89 3.67-4.31-3.67-1.15-3.74-5.08-3.26-4.72-5.53-2.52-1.21-.88-4-1.3-3.57.83-3.64 3-4.13-.15-5.19 2.56-1.2 5.34 5.82 5.79 1.98 6.2 10.22 10.94z" fill="#24285b"/><path d="M193.36 123.22s.36-2.63 2.32-2.2 1.46 4.25-1.28 4.29z" fill="#f4a28c"/><ellipse cx="198.56" cy="241.9" rx="96.76" ry="21.78" fill="#e6e6e6" opacity=".45"/><path d="M183.78 144.14s-40.92-11.82-40.73 17.9c.15 22.45 25.33 70.11 25.33 70.11h52s39.45-60.51 20.26-80-23.59-2.73-56.86-8.01z" fill="#34e7e4"/><path fill="#24285b" d="M168.3 239.43l31.64 8.53 28.07-14.24 4.26-7.6h-73.3l9.33 13.31z"/><path d="M217.44 148.4s-15.34 7.7-10.94 47.6c1.24 11.23-2.52 14-2.52 14l-43.85 4.39 8.25 17.75h52S243.2 195 245 175.87s-27.56-27.47-27.56-27.47z" opacity=".08"/><path d="M193 239.42s10.65 3.73 7 8.54-9.44-3.18-9.44-3.18z" fill="#34e7e4"/><path d="M193.28 237.56s-43-22-46.71-10.28 26 18.49 45.14 19.19zM203.73 239.29s34.33-34 41.37-24-19.14 25.51-37.17 32z" fill="#24285b"/><path d="M205.08 241.85s-10.17 9.06-4.28 11.73 7.13-6.29 7.13-6.29zM214.63 156.68c-.16-11.45 13.65-17.54 21.9-9.61 6.05 5.82 11.95 14.55 14.86 27.49 7.35 32.59 20.56 27.6 27 17.32s5.2-32.88 5.2-32.88l11.73.22s10.07 58.68-33.06 60.86c-33.2 1.67-47.26-35.95-47.63-63.4z" fill="#34e7e4"/><path d="M214.63 156.68c-.16-11.45 13.65-17.54 21.9-9.61 6.05 5.82 11.95 14.55 14.86 27.49 7.35 32.59 20.56 27.6 27 17.32s5.2-32.88 5.2-32.88l11.73.22s10.07 58.68-33.06 60.86c-33.2 1.67-47.26-35.95-47.63-63.4z" fill="#fff" opacity=".54"/><path fill="#24285b" d="M291.61 135.32h4.73v41.55h-4.73z"/><path fill="#ffd200" d="M172.73 220.85l-3.67-33.42h56.12l-5.6 35.13.8 4.5-48.24.38.59-6.59z"/><path d="M111.14 182.56s6.74-40.93 50.17-40.41l-34.83 40.41z" opacity=".28"/><circle cx="197.67" cy="205.43" r="4.81" fill="#fff"/><path d="M162.36 144.33a11.89 11.89 0 00-15.12 3.54c-8.54 11.41-27 38.54-26.19 58.22 1.1 25.55 56.82 22 56.82 22l-1.1-9.66S143 216 152.32 199.05c6.33-11.53 26.44-45.73 10.04-54.72z" fill="#34e7e4"/><path d="M162.36 144.33a11.89 11.89 0 00-15.12 3.54c-8.54 11.41-27 38.54-26.19 58.22 1.1 25.55 56.82 22 56.82 22l-1.1-9.66S143 216 152.32 199.05c6.33-11.53 26.44-45.73 10.04-54.72z" fill="#fff" opacity=".54"/><path d="M286.54 159.05s-1.32-10.12 7.64-8.94 8.88 8.37 1.14 9.1z" fill="#f4a28c"/><path fill="#ffd200" d="M268.04 106.65h51.21v32.74h-51.21z"/><path d="M287 130.54a1.2 1.2 0 01-.74-.25l-7.77-6.14a1.24 1.24 0 01-.46-.94 1.22 1.22 0 01.45-.94l7.77-6.25a1.2 1.2 0 111.5 1.87l-6.59 5.31 6.59 5.2a1.21 1.21 0 01.19 1.69 1.17 1.17 0 01-.94.45zM301 130.54a1.2 1.2 0 01-.75-2.14l6.59-5.2-6.6-5.31a1.21 1.21 0 01-.18-1.69 1.2 1.2 0 011.69-.18l7.77 6.25a1.18 1.18 0 01.44.94 1.23 1.23 0 01-.45.94l-7.77 6.14a1.2 1.2 0 01-.74.25zM290.73 130.54a1.23 1.23 0 01-.49-.1 1.2 1.2 0 01-.6-1.59l5.66-12.4a1.2 1.2 0 012.19 1l-5.66 12.39a1.22 1.22 0 01-1.1.7z" fill="#fff"/><path d="M177 220.67s8.56-3 10.61.55-1 8.38-9.76 6.87z" fill="#f4a28c"/></symbol><symbol viewBox="0 0 24 24" id="at" xmlns="http://www.w3.org/2000/svg"><path d="M12 0a12 12 0 107.092 21.681l-1.775-2.419A9 9 0 1121 12v1.5a1.5 1.5 0 01-3 0V12a6.023 6.023 0 10-1.922 4.388A4.48 4.48 0 0024 13.5V12A12.013 12.013 0 0012 0zm0 15a3 3 0 113-3 3 3 0 01-3 3z"/></symbol><symbol viewBox="0 0 24 24" id="comment-info" xmlns="http://www.w3.org/2000/svg"><path d="M13.5 6.5a1.5 1.5 0 01-3 0 1.5 1.5 0 013 0zM24 19v-6.66A12.209 12.209 0 0012.836.028 12 12 0 00.029 12.854C.471 19.208 6.082 24 13.083 24H19a5.006 5.006 0 005-5zM12.7 2.024A10.2 10.2 0 0122 12.34V19a3 3 0 01-3 3h-5.917C7.049 22 2.4 18.1 2.025 12.716A10 10 0 0112.016 2c.227 0 .456.009.684.024zM14 18v-6a2 2 0 00-2-2h-1a1 1 0 000 2h1v6a1 1 0 002 0z"/></symbol><symbol viewBox="0 0 24 24" id="contact" xmlns="http://www.w3.org/2000/svg"><path d="M18.5 1h-13A5.506 5.506 0 000 6.5v11A5.506 5.506 0 005.5 23h13a5.506 5.506 0 005.5-5.5v-11A5.506 5.506 0 0018.5 1zm0 3a2.476 2.476 0 011.643.631l-6.5 6.5a2.373 2.373 0 01-3.278 0l-6.5-6.5A2.476 2.476 0 015.5 4zm0 16h-13A2.5 2.5 0 013 17.5V8.017l5.239 5.239a5.317 5.317 0 007.521 0L21 8.017V17.5a2.5 2.5 0 01-2.5 2.5z"/></symbol><symbol viewBox="0 0 24 24" id="envelope_(2)" xmlns="http://www.w3.org/2000/svg"><path d="M18.5 1h-13A5.506 5.506 0 000 6.5v11A5.506 5.506 0 005.5 23h13a5.506 5.506 0 005.5-5.5v-11A5.506 5.506 0 0018.5 1zm0 3a2.476 2.476 0 011.643.631l-6.5 6.5a2.373 2.373 0 01-3.278 0l-6.5-6.5A2.476 2.476 0 015.5 4zm0 16h-13A2.5 2.5 0 013 17.5V8.017l5.239 5.239a5.317 5.317 0 007.521 0L21 8.017V17.5a2.5 2.5 0 01-2.5 2.5z"/></symbol><symbol viewBox="0 0 24 24" id="github" xmlns="http://www.w3.org/2000/svg"><path d="M12 .296c-6.627 0-12 5.372-12 12 0 5.302 3.438 9.8 8.206 11.387.6.111.82-.26.82-.577 0-.286-.011-1.231-.016-2.234-3.338.726-4.043-1.416-4.043-1.416-.546-1.387-1.332-1.756-1.332-1.756-1.089-.745.082-.729.082-.729 1.205.085 1.839 1.237 1.839 1.237 1.07 1.834 2.807 1.304 3.492.997.108-.776.419-1.305.762-1.605-2.665-.303-5.467-1.332-5.467-5.93 0-1.31.469-2.381 1.237-3.221-.125-.303-.536-1.523.116-3.176 0 0 1.008-.322 3.301 1.23A11.509 11.509 0 0112 6.099c1.02.005 2.047.138 3.006.404 2.29-1.553 3.297-1.23 3.297-1.23.653 1.653.242 2.873.118 3.176.769.84 1.235 1.911 1.235 3.221 0 4.609-2.807 5.624-5.479 5.921.43.372.814 1.103.814 2.222 0 1.606-.014 2.898-.014 3.293 0 .319.216.694.824.576 4.766-1.589 8.2-6.085 8.2-11.385C24 5.669 18.627.296 12 .296z" fill-rule="evenodd" clip-rule="evenodd"/><path d="M4.545 17.526c-.026.06-.12.078-.206.037-.087-.039-.136-.121-.108-.18.026-.061.12-.078.207-.037.087.038.137.12.107.18zM5.031 18.068c-.057.053-.169.028-.245-.055-.079-.084-.093-.196-.035-.249.059-.053.167-.028.246.056.079.083.094.194.034.248zM5.504 18.759c-.074.051-.194.003-.268-.103-.074-.107-.074-.235.002-.286.074-.051.193-.005.268.101.073.108.073.236-.002.288zM6.152 19.427c-.066.073-.206.053-.308-.046-.105-.097-.134-.234-.068-.307.067-.073.208-.052.311.046.104.097.135.235.065.307zM7.047 19.814c-.029.094-.164.137-.3.097-.136-.041-.225-.151-.197-.246.028-.095.164-.139.301-.096.135.04.224.15.196.245zM8.029 19.886c.003.099-.112.181-.255.183-.143.003-.26-.077-.261-.174 0-.1.113-.181.256-.184.143-.003.26.077.26.175zM8.943 19.731c.017.096-.082.196-.224.222-.139.026-.268-.034-.286-.13-.017-.099.084-.198.223-.224.141-.025.269.033.287.132z"/></symbol><symbol viewBox="0 0 24 24" id="info" xmlns="http://www.w3.org/2000/svg"><path d="M12 0a12 12 0 1012 12A12.013 12.013 0 0012 0zm0 21a9 9 0 119-9 9.011 9.011 0 01-9 9z"/><path d="M11.545 9.545h-.3a1.577 1.577 0 00-1.605 1.393A1.5 1.5 0 0011 12.532v4.65a1.5 1.5 0 003 0V12a2.455 2.455 0 00-2.455-2.455zM11.83 8.466a1.716 1.716 0 10-1.716-1.716 1.715 1.715 0 001.716 1.716z"/></symbol><symbol viewBox="0 0 24 24" id="linkedin" xmlns="http://www.w3.org/2000/svg"><path d="M23.002 21.584h.227l-.435-.658c.266 0 .407-.169.409-.376l-.001-.025c0-.282-.17-.417-.519-.417h-.564v1.476h.212v-.643h.261l.41.643zm-.425-.81h-.246v-.499h.312c.161 0 .345.026.345.237 0 .242-.186.262-.412.262M17.291 19.073h-3.007v-4.709c0-1.123-.02-2.568-1.564-2.568-1.566 0-1.806 1.223-1.806 2.487v4.79H7.908V9.389h2.887v1.323h.04a3.165 3.165 0 012.848-1.564c3.048 0 3.609 2.005 3.609 4.612l-.001 5.313zM4.515 8.065a1.745 1.745 0 110-3.49 1.745 1.745 0 010 3.49m1.503 11.008h-3.01V9.389h3.01v9.684zM18.79 1.783H1.497A1.481 1.481 0 000 3.246V20.61c.01.818.68 1.473 1.497 1.464H18.79a1.485 1.485 0 001.503-1.464V3.245a1.484 1.484 0 00-1.503-1.463"/><path d="M22.603 19.451a1.383 1.383 0 10.027 0h-.027m.032 2.608c-.67.011-1.254-.522-1.265-1.192a1.213 1.213 0 112.426-.04v.02a1.187 1.187 0 01-1.161 1.212h-.031"/></symbol><symbol viewBox="0 0 960 540" id="low-poly-grid-haikei" xmlns="http://www.w3.org/2000/svg"><g stroke-linejoin="bevel"><path d="M464.8 295l-29 28 58.4 26z" fill="#2a343c" stroke="#2a343c"/><path d="M435.8 323l2 30 56.4-4z" fill="#263037" stroke="#263037"/><path d="M375.3 290l45 37 15.5-4z" fill="#434f5b" stroke="#434f5b"/><path d="M435.8 323l-15.5 4 17.5 26z" fill="#1e272e" stroke="#1e272e"/><path d="M494.2 349l31-57-60.4 3z" fill="#2e3841" stroke="#2e3841"/><path d="M520.2 345l5-53-31 57z" fill="#222b33" stroke="#222b33"/><path d="M397.3 438l70.5-38-30-47z" fill="#263037" stroke="#263037"/><path d="M437.8 353l30 47 26.4-51z" fill="#485460" stroke="#485460"/><path d="M494.2 349l-26.4 51 52.4-55z" fill="#434f5b" stroke="#434f5b"/><path d="M562.7 409l-15-58-27.5-6z" fill="#2a343c" stroke="#2a343c"/><path d="M520.2 345l27.5 6-22.5-59z" fill="#485460" stroke="#485460"/><path d="M390.3 220l-15 70 89.5 5z" fill="#2a343c" stroke="#2a343c"/><path d="M464.8 295l-89.5-5 60.5 33z" fill="#1e272e" stroke="#1e272e"/><path d="M420.3 327l-51 36 68.5-10z" fill="#2e3841" stroke="#2e3841"/><path d="M525.2 292l-46.4-65-14 68zM375.3 290l-6 73 51-36z" fill="#36424b" stroke="#36424b"/><path d="M620.2 400l-28-74-44.5 25z" fill="#2a343c" stroke="#2a343c"/><path d="M547.7 351l44.5-25-67-34zM525.2 292l18.5-65h-64.9z" fill="#3b4650" stroke="#3b4650"/><path d="M467.8 400l94.9 9-42.5-64z" fill="#2a343c" stroke="#2a343c"/><path d="M571.7 243l-28-16-18.5 65z" fill="#1e272e" stroke="#1e272e"/><path d="M369.3 363l28 75 40.5-85z" fill="#263037" stroke="#263037"/><path d="M523.2 459l42.5-38-3-12zM423.3 163l-33 57 88.5 7z" fill="#222b33" stroke="#222b33"/><path d="M478.8 227l-88.5-7 74.5 75zM592.2 326l-20.5-83-46.5 49z" fill="#485460" stroke="#485460"/><path d="M523.2 459l39.5-50-94.9-9z" fill="#2a343c" stroke="#2a343c"/><path d="M620.2 400l13-44-41-30z" fill="#323d46" stroke="#323d46"/><path d="M328.8 283l-1 33 47.5-26z" fill="#3b4650" stroke="#3b4650"/><path d="M375.3 290l-47.5 26 41.5 47z" fill="#323d46" stroke="#323d46"/><path d="M369.3 363l-40.5 62 68.5 13z" fill="#434f5b" stroke="#434f5b"/><path d="M503.2 473l20-14-55.4-59z" fill="#3b4650" stroke="#3b4650"/><path d="M513.2 166l-34.4 61h64.9z" fill="#2e3841" stroke="#2e3841"/><path d="M513.2 166l-35 18 .6 43zM342.8 239l-14 44 46.5 7z" fill="#2a343c" stroke="#2a343c"/><path d="M423.8 485l79.4-12-35.4-73zM365.8 161l-23 78 47.5-19z" fill="#36424b" stroke="#36424b"/><path d="M390.3 220l-47.5 19 32.5 51z" fill="#1e272e" stroke="#1e272e"/><path d="M269.4 377l52.4-2 6-59z" fill="#36424b" stroke="#36424b"/><path d="M327.8 316l-6 59 47.5-12z" fill="#3f4b55" stroke="#3f4b55"/><path d="M410.3 510l13.5-25-26.5-47z" fill="#2a343c" stroke="#2a343c"/><path d="M397.3 438l26.5 47 44-85z" fill="#2e3841" stroke="#2e3841"/><path d="M620.2 400l-72.5-49 15 58z" fill="#485460" stroke="#485460"/><path d="M592.2 326l49-32-69.5-51z" fill="#263037" stroke="#263037"/><path d="M565.7 421l54.5-21-57.5 9z" fill="#485460" stroke="#485460"/><path d="M661.6 451l-41.4-51-54.5 21zM549.7 513l16-92-42.5 38z" fill="#222b33" stroke="#222b33"/><path d="M591.7 178l-78.5-12 30.5 61z" fill="#323d46" stroke="#323d46"/><path d="M478.2 184l-54.9-21 55.5 64z" fill="#434f5b" stroke="#434f5b"/><path d="M513.2 166l-63.4-7 28.4 25z" fill="#3f4b55" stroke="#3f4b55"/><path d="M321.8 375l7 50 40.5-62z" fill="#3b4650" stroke="#3b4650"/><path d="M449.8 159l-26.5 4 54.9 21z" fill="#2e3841" stroke="#2e3841"/><path d="M633.2 356l8-62-49 32zM571.7 243l20-65-48 49z" fill="#222b33" stroke="#222b33"/><path d="M341.8 509l68.5 1-13-72zM423.8 485v55l79.4-67z" fill="#3f4b55" stroke="#3f4b55"/><path d="M657.6 214l-65.9-36-20 65z" fill="#2a343c" stroke="#2a343c"/><path d="M365.8 123v38l57.5 2z" fill="#2e3841" stroke="#2e3841"/><path d="M423.3 163l-57.5-2 24.5 59z" fill="#1e272e" stroke="#1e272e"/><path d="M342.8 239l-75.4 51 61.4-7z" fill="#3f4b55" stroke="#3f4b55"/><path d="M536.2 540l13.5-27-46.5-40z" fill="#2e3841" stroke="#2e3841"/><path d="M503.2 473l46.5 40-26.5-54z" fill="#2a343c" stroke="#2a343c"/><path d="M691.6 403l-21-59-37.4 12z" fill="#3f4b55" stroke="#3f4b55"/><path d="M633.2 356l37.4-12-29.4-50z" fill="#3b4650" stroke="#3b4650"/><path d="M641.2 294l16.4-80-85.9 29z" fill="#1e272e" stroke="#1e272e"/><path d="M691.6 403l-58.4-47-13 44zM242.9 272l24.5 18 75.4-51z" fill="#434f5b" stroke="#434f5b"/><path d="M328.8 283l-61.4 7 60.4 26z" fill="#1e272e" stroke="#1e272e"/><path d="M321.8 375l-35.4 59 42.4-9z" fill="#2a343c" stroke="#2a343c"/><path d="M250.4 324l19 53 58.4-61z" fill="#3b4650" stroke="#3b4650"/><path d="M328.8 425l13 84 55.5-71z" fill="#1e272e" stroke="#1e272e"/><path d="M269.4 377l17 57 35.4-59z" fill="#3b4650" stroke="#3b4650"/><path d="M369.3 540h54.5l-13.5-30z" fill="#3f4b55" stroke="#3f4b55"/><path d="M410.3 510l13.5 30v-55z" fill="#222b33" stroke="#222b33"/><path d="M267.4 290l-17 34 77.4-8z" fill="#263037" stroke="#263037"/><path d="M269.4 377l-52.5 48 69.5 9z" fill="#36424b" stroke="#36424b"/><path d="M208.9 459l85.5 4-8-29z" fill="#222b33" stroke="#222b33"/><path d="M286.4 434l8 29 34.4-38zM696.6 255l-39-41-16.4 80z" fill="#323d46" stroke="#323d46"/><path d="M294.4 463l47.4 46-13-84z" fill="#3f4b55" stroke="#3f4b55"/><path d="M423.8 540h112.4l-33-67z" fill="#2e3841" stroke="#2e3841"/><path d="M619.2 512l42.4-61-95.9-30z" fill="#3f4b55" stroke="#3f4b55"/><path d="M267.4 290l-22.5 24 5.5 10z" fill="#222b33" stroke="#222b33"/><path d="M250.4 324l-48.5 29 67.5 24z" fill="#3b4650" stroke="#3b4650"/><path d="M242.9 272l2 42 22.5-24z" fill="#2e3841" stroke="#2e3841"/><path d="M652.2 185l-58-48-2.5 41z" fill="#263037" stroke="#263037"/><path d="M591.7 178l2.5-41-81 29zM513.2 166l-12-65-51.4 58z" fill="#434f5b" stroke="#434f5b"/><path d="M393.3 100l-27.5 23 57.5 40z" fill="#36424b" stroke="#36424b"/><path d="M619.2 512l-53.5-91-16 92z" fill="#434f5b" stroke="#434f5b"/><path d="M393.3 100l30 63-3.5-74z" fill="#2e3841" stroke="#2e3841"/><path d="M251.4 193l-8.5 79 99.9-33z" fill="#434f5b" stroke="#434f5b"/><path d="M594.2 137l-93-36 12 65z" fill="#36424b" stroke="#36424b"/><path d="M282.4 167l60.4 72 23-78z" fill="#323d46" stroke="#323d46"/><path d="M657.6 214l-5.4-29-60.5-7z" fill="#3f4b55" stroke="#3f4b55"/><path d="M343.8 540h25.5l-27.5-31z" fill="#222b33" stroke="#222b33"/><path d="M341.8 509l27.5 31 41-30z" fill="#222b33" stroke="#222b33"/><path d="M661.6 451l30-48-71.4-3z" fill="#323d46" stroke="#323d46"/><path d="M670.6 344l26-89-55.4 39z" fill="#36424b" stroke="#36424b"/><path d="M591.7 540l27.5-28-69.5 1zM750.1 292l-53.5-37-26 89z" fill="#485460" stroke="#485460"/><path d="M747.1 188l-73.5-46-21.4 43z" fill="#323d46" stroke="#323d46"/><path d="M419.8 89l3.5 74 26.5-4z" fill="#36424b" stroke="#36424b"/><path d="M501.2 101l-81.4-12 30 70z" fill="#3f4b55" stroke="#3f4b55"/><path d="M536.2 540h55.5l-42-27z" fill="#434f5b" stroke="#434f5b"/><path d="M260.4 540h83.4l-2-31z" fill="#1e272e" stroke="#1e272e"/><path d="M273.4 130l9 37 83.4-44z" fill="#2a343c" stroke="#2a343c"/><path d="M365.8 123l-83.4 44 83.4-6z" fill="#1e272e" stroke="#1e272e"/><path d="M591.7 540h3.5l24-28z" fill="#323d46" stroke="#323d46"/><path d="M282.4 167l-31 26 91.4 46z" fill="#3b4650" stroke="#3b4650"/><path d="M251.4 193l-26.5 43 18 36z" fill="#36424b" stroke="#36424b"/><path d="M187.4 296l14.5 57 43-39z" fill="#434f5b" stroke="#434f5b"/><path d="M187.4 296l57.5 18-2-42z" fill="#434f5b" stroke="#434f5b"/><path d="M244.9 314l-43 39 48.5-29z" fill="#3f4b55" stroke="#3f4b55"/><path d="M294.4 463l-34 77 81.4-31z" fill="#36424b" stroke="#36424b"/><path d="M201.9 353l15 72 52.5-48z" fill="#2a343c" stroke="#2a343c"/><path d="M661.6 451l37 21-7-69z" fill="#263037" stroke="#263037"/><path d="M691.6 403l45.5-13-66.5-46z" fill="#36424b" stroke="#36424b"/><path d="M619.2 512l79.4-40-37-21z" fill="#434f5b" stroke="#434f5b"/><path d="M690.6 540l8-68-79.4 40z" fill="#3f4b55" stroke="#3f4b55"/><path d="M594.2 137l-12.5-56-80.5 20zM501.2 101l-10-54-71.4 42z" fill="#1e272e" stroke="#1e272e"/><path d="M639.2 111l-57.5-30 12.5 56z" fill="#3f4b55" stroke="#3f4b55"/><path d="M746.1 428l-9-38-45.5 13z" fill="#1e272e" stroke="#1e272e"/><path d="M673.6 142l-34.4-31 13 74z" fill="#2e3841" stroke="#2e3841"/><path d="M652.2 185l-13-74-45 26zM581.7 81l-44-21-36.5 41z" fill="#36424b" stroke="#36424b"/><path d="M747.1 188l-94.9-3 5.4 29z" fill="#434f5b" stroke="#434f5b"/><path d="M747.1 188l-89.5 26 39 41z" fill="#485460" stroke="#485460"/><path d="M180.4 146l-6 96 50.5-6zM282.4 167l-63.5-35 32.5 61z" fill="#2e3841" stroke="#2e3841"/><path d="M331.8 63l-58.4 67 92.4-7z" fill="#1e272e" stroke="#1e272e"/><path d="M331.8 63l34 60 27.5-23z" fill="#1e272e" stroke="#1e272e"/><path d="M537.7 60l-46.5-13 10 54z" fill="#222b33" stroke="#222b33"/><path d="M369.3 23l-37.5 40 61.5 37z" fill="#263037" stroke="#263037"/><path d="M174.4 242l13 54 37.5-60zM224.9 236l-37.5 60 55.5-24z" fill="#1e272e" stroke="#1e272e"/><path d="M191.4 457l17.5 2 8-34z" fill="#434f5b" stroke="#434f5b"/><path d="M754.1 306l-4-14-79.5 52z" fill="#323d46" stroke="#323d46"/><path d="M737.1 390l17-84-83.5 38z" fill="#3b4650" stroke="#3b4650"/><path d="M175.4 355l41.5 70-15-72z" fill="#263037" stroke="#263037"/><path d="M216.9 425l-8 34 77.5-25z" fill="#323d46" stroke="#323d46"/><path d="M786.6 305l-28-7-4.5 8z" fill="#36424b" stroke="#36424b"/><path d="M754.1 306l4.5-8-8.5-6z" fill="#36424b" stroke="#36424b"/><path d="M750.1 292l12.5-66-66 29z" fill="#2a343c" stroke="#2a343c"/><path d="M164.4 346l11 9 26.5-2z" fill="#2e3841" stroke="#2e3841"/><path d="M698.6 472l47.5-44-54.5-25zM737.1 390l44.5-11-27.5-73z" fill="#1e272e" stroke="#1e272e"/><path d="M247.9 540h12.5l34-77z" fill="#36424b" stroke="#36424b"/><path d="M369.3 23l24 77 26.5-11z" fill="#485460" stroke="#485460"/><path d="M477.8 0l-8 25 38.4-25z" fill="#222b33" stroke="#222b33"/><path d="M491.2 47l-21.4-22-50 64z" fill="#3f4b55" stroke="#3f4b55"/><path d="M469.8 25l21.4 22 17-47z" fill="#36424b" stroke="#36424b"/><path d="M187.4 296l-23 50 37.5 7z" fill="#263037" stroke="#263037"/><path d="M142.9 459l48.5-2-70.5-52z" fill="#434f5b" stroke="#434f5b"/><path d="M181.4 464l10-7-48.5 2z" fill="#434f5b" stroke="#434f5b"/><path d="M208.9 459l39 81 46.5-77z" fill="#263037" stroke="#263037"/><path d="M185.4 540h62.5l-39-81z" fill="#1e272e" stroke="#1e272e"/><path d="M180.4 146l44.5 90 26.5-43z" fill="#434f5b" stroke="#434f5b"/><path d="M115.9 309l2 37h46.5z" fill="#1e272e" stroke="#1e272e"/><path d="M218.9 132l63.5 35-9-37z" fill="#3b4650" stroke="#3b4650"/><path d="M595.2 540h95.4l-71.4-28z" fill="#434f5b" stroke="#434f5b"/><path d="M698.6 472l26.5 38 21-82z" fill="#263037" stroke="#263037"/><path d="M702.1 82l-62.9 29 34.4 31z" fill="#485460" stroke="#485460"/><path d="M702.1 82l-53.5-4-9.4 33z" fill="#263037" stroke="#263037"/><path d="M639.2 111l9.4-33-66.9 3z" fill="#2a343c" stroke="#2a343c"/><path d="M535.7 0h-27.5l29.5 60zM758.6 298l4-72-12.5 66z" fill="#3b4650" stroke="#3b4650"/><path d="M762.6 226l-15.5-38-50.5 67z" fill="#485460" stroke="#485460"/><path d="M690.6 540l34.5-30-26.5-38z" fill="#434f5b" stroke="#434f5b"/><path d="M780.6 437l1-58-35.5 49z" fill="#485460" stroke="#485460"/><path d="M746.1 428l35.5-49-44.5 11z" fill="#485460" stroke="#485460"/><path d="M758.6 298l28 7-24-79z" fill="#2e3841" stroke="#2e3841"/><path d="M223.9 78l-5 54 54.5-2z" fill="#3f4b55" stroke="#3f4b55"/><path d="M191.4 457l25.5-32-96-20z" fill="#36424b" stroke="#36424b"/><path d="M191.4 457l-10 7 27.5-5zM781.6 379l5-74-32.5 1z" fill="#323d46" stroke="#323d46"/><path d="M403.3 0l-34 23 50.5 66zM245.9 51l-22 27 49.5 52z" fill="#2a343c" stroke="#2a343c"/><path d="M747.1 188l-29-66-44.5 20z" fill="#434f5b" stroke="#434f5b"/><path d="M762.6 226l2.5-36-18-2z" fill="#485460" stroke="#485460"/><path d="M747.1 188l39.5-23-68.5-43z" fill="#36424b" stroke="#36424b"/><path d="M786.6 165l-21.5 25 84 41z" fill="#485460" stroke="#485460"/><path d="M508.2 0l-17 47 46.5 13z" fill="#434f5b" stroke="#434f5b"/><path d="M469.8 25L403.3 0l16.5 89z" fill="#2e3841" stroke="#2e3841"/><path d="M596.2 0l-58.5 60 44 21z" fill="#2a343c" stroke="#2a343c"/><path d="M725.1 510l55.5-73-34.5-9z" fill="#485460" stroke="#485460"/><path d="M832.1 331l-13-45-32.5 19zM672.6 23l-42.4 16 18.4 39z" fill="#1e272e" stroke="#1e272e"/><path d="M648.6 78l-18.4-39-48.5 42z" fill="#36424b" stroke="#36424b"/><path d="M477.8 0h-74.5l66.5 25z" fill="#222b33" stroke="#222b33"/><path d="M596.2 0h-60.5l2 60z" fill="#3f4b55" stroke="#3f4b55"/><path d="M718.1 122l-16-40-28.5 60z" fill="#485460" stroke="#485460"/><path d="M788.6 59l-86.5 23 16 40z" fill="#2e3841" stroke="#2e3841"/><path d="M690.6 540h44.5l-10-30z" fill="#323d46" stroke="#323d46"/><path d="M725.1 510l68.5 3-13-76z" fill="#222b33" stroke="#222b33"/><path d="M198.4 84l-18 62 38.5-14z" fill="#434f5b" stroke="#434f5b"/><path d="M218.9 132l-38.5 14 71 47zM120.9 405l54.5-50-11-9z" fill="#3f4b55" stroke="#3f4b55"/><path d="M356.8 0l-25 63 37.5-40z" fill="#485460" stroke="#485460"/><path d="M403.3 0h-46.5l12.5 23zM245.9 51l27.5 79 58.4-67z" fill="#36424b" stroke="#36424b"/><path d="M120.9 405l96 20-41.5-70z" fill="#2a343c" stroke="#2a343c"/><path d="M181.4 464l4 76 23.5-81z" fill="#485460" stroke="#485460"/><path d="M164.4 346l23-50-71.5 13z" fill="#3b4650" stroke="#3b4650"/><path d="M115.9 309l71.5-13-13-54zM630.2 39l-34-39-14.5 81z" fill="#1e272e" stroke="#1e272e"/><path d="M677.6 0h-81.4l34 39z" fill="#263037" stroke="#263037"/><path d="M832.1 331l-45.5-26-5 74z" fill="#3f4b55" stroke="#3f4b55"/><path d="M786.6 305l32.5-19-56.5-60z" fill="#323d46" stroke="#323d46"/><path d="M103.9 225l12 84 58.5-67z" fill="#3f4b55" stroke="#3f4b55"/><path d="M142.9 459l42.5 81-4-76z" fill="#36424b" stroke="#36424b"/><path d="M255.4 27l-9.5 24 85.9 12z" fill="#3f4b55" stroke="#3f4b55"/><path d="M80.5 381l40.4 24-3-59z" fill="#263037" stroke="#263037"/><path d="M117.9 346l3 59 43.5-59z" fill="#222b33" stroke="#222b33"/><path d="M849.1 231l-84-41-2.5 36zM765.1 190l21.5-25-39.5 23z" fill="#2e3841" stroke="#2e3841"/><path d="M858.1 389l-26-58-50.5 48z" fill="#36424b" stroke="#36424b"/><path d="M819.1 286l30-55-86.5-5z" fill="#3f4b55" stroke="#3f4b55"/><path d="M843.1 432l-61.5-53-1 58zM223.9 78l-25.5 6 20.5 48z" fill="#3b4650" stroke="#3b4650"/><path d="M180.4 146l-76.5 79 70.5 17z" fill="#485460" stroke="#485460"/><path d="M181.4 38l17 46 25.5-6z" fill="#2a343c" stroke="#2a343c"/><path d="M677.6 0l-5 23 62.5-23z" fill="#1e272e" stroke="#1e272e"/><path d="M702.1 82l-29.5-59-24 55z" fill="#2a343c" stroke="#2a343c"/><path d="M263.4 0l-8 27 76.4 36z" fill="#2e3841" stroke="#2e3841"/><path d="M245.9 51l-64.5-13 42.5 40z" fill="#434f5b" stroke="#434f5b"/><path d="M735.1 540l58.5-27-68.5-3z" fill="#263037" stroke="#263037"/><path d="M86.9 178l17 47 76.5-79z" fill="#2a343c" stroke="#2a343c"/><path d="M115.9 309l-45.4 12 47.4 25z" fill="#2e3841" stroke="#2e3841"/><path d="M103.9 225l-16 63 28 21z" fill="#434f5b" stroke="#434f5b"/><path d="M735.1 540h55.5l3-27z" fill="#36424b" stroke="#36424b"/><path d="M793.6 513l49.5-81-62.5 5z" fill="#222b33" stroke="#222b33"/><path d="M356.8 0h-93.4l68.4 63z" fill="#2a343c" stroke="#2a343c"/><path d="M193.9 0l-12.5 38 64.5 13zM868.1 511l-25-79-49.5 81z" fill="#263037" stroke="#263037"/><path d="M735.1 0l-62.5 23 29.5 59z" fill="#2e3841" stroke="#2e3841"/><path d="M672.6 23l5-23-47.4 39z" fill="#3b4650" stroke="#3b4650"/><path d="M103.9 225l-23.4 58 7.4 5z" fill="#263037" stroke="#263037"/><path d="M70.5 321l10 60 37.4-35z" fill="#485460" stroke="#485460"/><path d="M70.5 321l45.4-12-28-21z" fill="#36424b" stroke="#36424b"/><path d="M120.9 405l-40.4 43 62.4 11zM142.9 459l-21 81h63.5z" fill="#2e3841" stroke="#2e3841"/><path d="M894.5 295l-45.4-64-30 55z" fill="#3f4b55" stroke="#3f4b55"/><path d="M786.6 165l8-58-76.5 15z" fill="#222b33" stroke="#222b33"/><path d="M878.5 213l-29.4 18 45.4 64z" fill="#3b4650" stroke="#3b4650"/><path d="M866.1 179l-71.5-72-8 58z" fill="#485460" stroke="#485460"/><path d="M843.1 432l15-43-76.5-10z" fill="#2a343c" stroke="#2a343c"/><path d="M80.5 283l-10 38 17.4-33z" fill="#36424b" stroke="#36424b"/><path d="M59.5 483l21-35L0 430z" fill="#3f4b55" stroke="#3f4b55"/><path d="M80.5 381v67l40.4-43z" fill="#222b33" stroke="#222b33"/><path d="M59.5 483l62.4 57 21-81z" fill="#3b4650" stroke="#3b4650"/><path d="M193.9 0l52 51 9.5-24z" fill="#2a343c" stroke="#2a343c"/><path d="M198.4 84l-62.5 7 44.5 55z" fill="#485460" stroke="#485460"/><path d="M181.4 38l-45.5 53 62.5-7z" fill="#222b33" stroke="#222b33"/><path d="M103.9 225l-48.4-7 25 65z" fill="#263037" stroke="#263037"/><path d="M135.9 91l-49 87 93.5-32z" fill="#434f5b" stroke="#434f5b"/><path d="M0 285v69l70.5-33z" fill="#222b33" stroke="#222b33"/><path d="M857.1 88l-68.5-29 6 48z" fill="#434f5b" stroke="#434f5b"/><path d="M794.6 107l-6-48-70.5 63zM788.6 59L735.1 0l-33 82z" fill="#222b33" stroke="#222b33"/><path d="M878.5 213l-12.4-34-17 52z" fill="#434f5b" stroke="#434f5b"/><path d="M849.1 231l17-52-79.5-14z" fill="#36424b" stroke="#36424b"/><path d="M894.5 295l-75.4-9 13 45z" fill="#3b4650" stroke="#3b4650"/><path d="M900.5 453l-3-100-39.4 36z" fill="#222b33" stroke="#222b33"/><path d="M790.6 540h47.5l-44.5-27zM897.5 353l-65.4-22 26 58z" fill="#434f5b" stroke="#434f5b"/><path d="M897.5 353l-3-58-62.4 36z" fill="#3f4b55" stroke="#3f4b55"/><path d="M86.9 178l-31.4 40 48.4 7z" fill="#1e272e" stroke="#1e272e"/><path d="M0 430l80.5 18v-67z" fill="#323d46" stroke="#323d46"/><path d="M27.5 136l28 82 31.4-40z" fill="#3b4650" stroke="#3b4650"/><path d="M263.4 0h-69.5l61.5 27z" fill="#2e3841" stroke="#2e3841"/><path d="M181.4 38l-63.5 24 18 29zM900.5 453l-42.4-64-15 43z" fill="#323d46" stroke="#323d46"/><path d="M80.5 448l-21 35 83.4-24z" fill="#1e272e" stroke="#1e272e"/><path d="M0 354l80.5 27-10-60z" fill="#36424b" stroke="#36424b"/><path d="M838.1 540l30-29-74.5 2z" fill="#323d46" stroke="#323d46"/><path d="M164.4 0l-46.5 62 63.5-24z" fill="#2e3841" stroke="#2e3841"/><path d="M28.5 114l-1 22 59.4 42z" fill="#3b4650" stroke="#3b4650"/><path d="M193.9 0h-29.5l17 38z" fill="#1e272e" stroke="#1e272e"/><path d="M894.5 484l6-31-57.4-21z" fill="#485460" stroke="#485460"/><path d="M868.1 511l26.4-27-51.4-52z" fill="#36424b" stroke="#36424b"/><path d="M960 330l-65.5-35 3 58z" fill="#222b33" stroke="#222b33"/><path d="M960 330l-39.5-50-26 15z" fill="#323d46" stroke="#323d46"/><path d="M894.5 295l26-15-42-67z" fill="#1e272e" stroke="#1e272e"/><path d="M878.5 213l11-60-23.4 26z" fill="#2e3841" stroke="#2e3841"/><path d="M960 188l-70.5-35-11 60z" fill="#3b4650" stroke="#3b4650"/><path d="M866.1 179l-9-91-62.5 19z" fill="#222b33" stroke="#222b33"/><path d="M788.6 59l31-59h-84.5z" fill="#434f5b" stroke="#434f5b"/><path d="M887.5 116l-30.4-28 9 91z" fill="#323d46" stroke="#323d46"/><path d="M0 285l80.5-2-25-65z" fill="#2a343c" stroke="#2a343c"/><path d="M0 285l70.5 36 10-38z" fill="#2e3841" stroke="#2e3841"/><path d="M960 132l-72.5-16 2 37z" fill="#485460" stroke="#485460"/><path d="M889.5 153l-2-37-21.4 63zM0 354v8l80.5 19z" fill="#434f5b" stroke="#434f5b"/><path d="M0 186v99l55.5-67z" fill="#2a343c" stroke="#2a343c"/><path d="M887.5 116l-16-48-14.4 20z" fill="#323d46" stroke="#323d46"/><path d="M857.1 88l15-46-83.5 17z" fill="#485460" stroke="#485460"/><path d="M0 362v68l80.5-49z" fill="#434f5b" stroke="#434f5b"/><path d="M59.5 483l-35 57h97.4z" fill="#485460" stroke="#485460"/><path d="M872.1 42L819.6 0l-31 59z" fill="#263037" stroke="#263037"/><path d="M28.5 114l107.4-23-18-29z" fill="#3f4b55" stroke="#3f4b55"/><path d="M28.5 114l58.4 64 49-87z" fill="#36424b" stroke="#36424b"/><path d="M960 436v-60l-59.5 77z" fill="#434f5b" stroke="#434f5b"/><path d="M960 376v-46l-62.5 23z" fill="#222b33" stroke="#222b33"/><path d="M868.1 511l32.4 29-6-56z" fill="#3b4650" stroke="#3b4650"/><path d="M838.1 540h62.4l-32.4-29z" fill="#36424b" stroke="#36424b"/><path d="M164.4 0h-54.5l8 62z" fill="#222b33" stroke="#222b33"/><path d="M39.5 59l-11 55 89.4-52z" fill="#3b4650" stroke="#3b4650"/><path d="M27.5 136L0 186l55.5 32z" fill="#222b33" stroke="#222b33"/><path d="M0 152v34l27.5-50z" fill="#323d46" stroke="#323d46"/><path d="M0 430v46l59.5 7z" fill="#36424b" stroke="#36424b"/><path d="M960 376l-62.5-23 3 100z" fill="#1e272e" stroke="#1e272e"/><path d="M920.5 280l39.5-82-81.5 15z" fill="#485460" stroke="#485460"/><path d="M960 70l-87.9-28-.6 26z" fill="#263037" stroke="#263037"/><path d="M0 476l24.5 64 35-57z" fill="#323d46" stroke="#323d46"/><path d="M960 436l-59.5 17 59.5 8z" fill="#3b4650" stroke="#3b4650"/><path d="M871.5 68l.6-26-15 46z" fill="#36424b" stroke="#36424b"/><path d="M960 70l-88.5-2 16 48z" fill="#2a343c" stroke="#2a343c"/><path d="M960 330v-63l-39.5 13z" fill="#36424b" stroke="#36424b"/><path d="M0 113l27.5 23 1-22z" fill="#222b33" stroke="#222b33"/><path d="M0 113v39l27.5-16z" fill="#1e272e" stroke="#1e272e"/><path d="M960 461l-59.5-8-6 31zM52.5 0l-13 59 78.4 3z" fill="#263037" stroke="#263037"/><path d="M960 267v-69l-39.5 82z" fill="#222b33" stroke="#222b33"/><path d="M960 540v-79l-65.5 23z" fill="#3b4650" stroke="#3b4650"/><path d="M932.5 0h-73.4l13 42z" fill="#2e3841" stroke="#2e3841"/><path d="M872.1 42l-13-42h-39.5z" fill="#1e272e" stroke="#1e272e"/><path d="M960 198v-10l-81.5 25z" fill="#222b33" stroke="#222b33"/><path d="M0 476v64h24.5zM0 73v40l28.5 1z" fill="#434f5b" stroke="#434f5b"/><path d="M960 188v-56l-70.5 21z" fill="#36424b" stroke="#36424b"/><path d="M109.9 0H52.5l65.4 62z" fill="#434f5b" stroke="#434f5b"/><path d="M39.5 59L0 73l28.5 41z" fill="#263037" stroke="#263037"/><path d="M0 0v73l39.5-14z" fill="#434f5b" stroke="#434f5b"/><path d="M900.5 540H960l-65.5-56z" fill="#1e272e" stroke="#1e272e"/><path d="M960 132V70l-72.5 46zM960 70L932.5 0l-60.4 42z" fill="#263037" stroke="#263037"/><path d="M52.5 0H0l39.5 59z" fill="#3b4650" stroke="#3b4650"/><path d="M960 70V0h-27.5z" fill="#323d46" stroke="#323d46"/></g></symbol><symbol viewBox="0 0 24 24" id="paint-roller" xmlns="http://www.w3.org/2000/svg"><path d="M20 3c0-1.654-1.346-3-3-3H3C1.346 0 0 1.346 0 3v2c0 1.654 1.346 3 3 3h14c1.654 0 3-1.346 3-3 1.103 0 2 .897 2 2v1c0 1.103-.897 2-2 2h-7c-2.206 0-4 1.794-4 4v.184A2.996 2.996 0 007 17v4c0 1.654 1.346 3 3 3s3-1.346 3-3v-4a2.996 2.996 0 00-2-2.816V14c0-1.103.897-2 2-2h7c2.206 0 4-1.794 4-4V7c0-2.206-1.794-4-4-4zm-2 2c0 .552-.449 1-1 1H3c-.551 0-1-.448-1-1V3c0-.552.449-1 1-1h14c.551 0 1 .448 1 1v2zm-7 16a1.001 1.001 0 01-2 0v-4a1.001 1.001 0 012 0v4z"/></symbol></svg>