<?xml version="1.0" standalone="no"?>
<!DOCTYPE svg PUBLIC "-//W3C//DTD SVG 20010904//EN"
 "http://www.w3.org/TR/2001/REC-SVG-20010904/DTD/svg10.dtd">
<svg version="1.0" xmlns="http://www.w3.org/2000/svg"
 width="512.000000pt" height="512.000000pt" viewBox="0 0 512.000000 512.000000"
 preserveAspectRatio="xMidYMid meet">
<metadata>
Created by potrace 1.14, written by Peter Selinger 2001-2017
</metadata>
<g transform="translate(0.000000,512.000000) scale(0.100000,-0.100000)"
fill="#000000" stroke="none">
<path d="M2320 4998 c-144 -17 -217 -29 -330 -56 -265 -63 -531 -177 -750
-320 l-85 -56 -525 -1 c-289 -1 -533 -3 -544 -4 -10 0 -33 -16 -52 -35 l-34
-34 0 -1551 c0 -1093 3 -1557 11 -1574 23 -51 51 -57 256 -57 l188 -1 45 -72
c45 -72 147 -211 204 -277 43 -49 234 -239 276 -274 210 -173 469 -325 700
-411 41 -15 84 -31 95 -35 53 -22 242 -72 315 -84 19 -4 78 -13 130 -22 187
-31 516 -26 755 11 121 19 417 103 510 145 185 83 382 190 465 252 215 162
367 299 484 441 l56 68 11 -28 c19 -48 100 -267 106 -285 9 -30 27 -20 106 57
41 41 83 75 92 75 9 0 57 -40 106 -89 65 -65 95 -88 107 -84 23 8 102 90 102
106 0 7 -40 53 -90 102 -49 49 -90 95 -90 102 0 8 36 50 81 95 64 65 78 84 67
93 -7 7 -79 36 -159 65 l-147 53 0 106 c0 96 3 112 29 174 29 66 113 308 124
357 23 108 45 224 51 270 3 30 8 69 11 85 9 56 11 420 2 490 -18 146 -31 223
-54 320 -24 104 -77 278 -100 330 -8 17 -26 59 -40 95 -38 91 -88 187 -167
315 l-67 110 0 256 c0 274 -3 295 -50 326 -23 15 -57 18 -291 19 l-265 1 -95
61 c-269 175 -679 326 -975 358 -27 3 -79 9 -115 14 -78 10 -369 9 -460 -2z"/>
</g>
</svg>
