<svg width="402" height="202" viewBox="0 0 402 202" fill="none" xmlns="http://www.w3.org/2000/svg">
<g id="Frame 1" clip-path="url(#clip0_1_2)">
<ellipse id="core" cx="206.447" cy="-29.0243" rx="154" ry="172" transform="rotate(179.756 206.447 -29.0243)" fill="#FFA801" stroke="#FFC048"/>
<g id="groupQuartier">
<path id="quartier1" d="M273.471 92.823L233.82 39.2814C226.262 29.076 233.511 14.611 246.21 14.5569L325.055 14.2216C337.754 14.1676 345.126 28.5705 337.655 38.8398L298.461 92.7167C292.303 101.181 279.7 101.235 273.471 92.823Z" fill="#FFC048" stroke="#FFC048"/>
<path id="quartier3" d="M110.348 92.0717L77.8696 42.9549C69.3182 30.0227 78.5485 12.7655 94.0522 12.6996L158.59 12.4251C174.093 12.3591 183.47 29.5372 175.029 42.5417L142.97 91.933C135.321 103.717 118.097 103.791 110.348 92.0717Z" fill="#FFC048" stroke="#FFC048"/>
<path id="quartier2" d="M156.645 93.95L188.933 35.9255C196.226 22.8198 214.966 22.5095 222.689 35.3665L256.792 92.1425C264.515 104.999 255.438 121.398 240.442 121.68L174.051 122.928C159.016 123.211 149.333 107.09 156.645 93.95Z" fill="#FFC048" stroke="#FFC048"/>
</g>
<g id="center" filter="url(#filter0_d_1_2)">
<ellipse cx="206.555" cy="-3.52457" rx="25" ry="25.5" transform="rotate(179.756 206.555 -3.52457)" fill="#FFD32A"/>
<path d="M182.056 -3.42037C181.997 -17.2367 192.928 -28.4668 206.449 -28.5243C219.971 -28.5819 230.997 -17.4451 231.055 -3.62877C231.114 10.1876 220.183 21.4177 206.662 21.4752C193.14 21.5327 182.114 10.396 182.056 -3.42037Z" stroke="#FFC048"/>
</g>
</g>
<defs>
<filter id="filter0_d_1_2" x="177.555" y="-29.0246" width="58" height="59" filterUnits="userSpaceOnUse" color-interpolation-filters="sRGB">
<feFlood flood-opacity="0" result="BackgroundImageFix"/>
<feColorMatrix in="SourceAlpha" type="matrix" values="0 0 0 0 0 0 0 0 0 0 0 0 0 0 0 0 0 0 127 0" result="hardAlpha"/>
<feOffset dy="4"/>
<feGaussianBlur stdDeviation="2"/>
<feComposite in2="hardAlpha" operator="out"/>
<feColorMatrix type="matrix" values="0 0 0 0 0 0 0 0 0 0 0 0 0 0 0 0 0 0 0.25 0"/>
<feBlend mode="normal" in2="BackgroundImageFix" result="effect1_dropShadow_1_2"/>
<feBlend mode="normal" in="SourceGraphic" in2="effect1_dropShadow_1_2" result="shape"/>
</filter>
<clipPath id="clip0_1_2">
<rect width="400" height="200" fill="white" transform="translate(401.423 200.148) rotate(179.756)"/>
</clipPath>
</defs>
</svg>
