<svg id="visual" viewBox="0 0 960 540" width="960" height="540" xmlns="http://www.w3.org/2000/svg" xmlns:xlink="http://www.w3.org/1999/xlink" version="1.1"><g stroke-width="1" stroke-linejoin="bevel"><path d="M464.8 295L435.8 323L494.2 349Z" fill="#2a343c" stroke="#2a343c"></path><path d="M435.8 323L437.8 353L494.2 349Z" fill="#263037" stroke="#263037"></path><path d="M375.3 290L420.3 327L435.8 323Z" fill="#434f5b" stroke="#434f5b"></path><path d="M435.8 323L420.3 327L437.8 353Z" fill="#1e272e" stroke="#1e272e"></path><path d="M494.2 349L525.2 292L464.8 295Z" fill="#2e3841" stroke="#2e3841"></path><path d="M520.2 345L525.2 292L494.2 349Z" fill="#222b33" stroke="#222b33"></path><path d="M397.3 438L467.8 400L437.8 353Z" fill="#263037" stroke="#263037"></path><path d="M437.8 353L467.8 400L494.2 349Z" fill="#485460" stroke="#485460"></path><path d="M494.2 349L467.8 400L520.2 345Z" fill="#434f5b" stroke="#434f5b"></path><path d="M562.7 409L547.7 351L520.2 345Z" fill="#2a343c" stroke="#2a343c"></path><path d="M520.2 345L547.7 351L525.2 292Z" fill="#485460" stroke="#485460"></path><path d="M390.3 220L375.3 290L464.8 295Z" fill="#2a343c" stroke="#2a343c"></path><path d="M464.8 295L375.3 290L435.8 323Z" fill="#1e272e" stroke="#1e272e"></path><path d="M420.3 327L369.3 363L437.8 353Z" fill="#2e3841" stroke="#2e3841"></path><path d="M525.2 292L478.8 227L464.8 295Z" fill="#36424b" stroke="#36424b"></path><path d="M375.3 290L369.3 363L420.3 327Z" fill="#36424b" stroke="#36424b"></path><path d="M620.2 400L592.2 326L547.7 351Z" fill="#2a343c" stroke="#2a343c"></path><path d="M547.7 351L592.2 326L525.2 292Z" fill="#3b4650" stroke="#3b4650"></path><path d="M525.2 292L543.7 227L478.8 227Z" fill="#3b4650" stroke="#3b4650"></path><path d="M467.8 400L562.7 409L520.2 345Z" fill="#2a343c" stroke="#2a343c"></path><path d="M571.7 243L543.7 227L525.2 292Z" fill="#1e272e" stroke="#1e272e"></path><path d="M369.3 363L397.3 438L437.8 353Z" fill="#263037" stroke="#263037"></path><path d="M523.2 459L565.7 421L562.7 409Z" fill="#222b33" stroke="#222b33"></path><path d="M423.3 163L390.3 220L478.8 227Z" fill="#222b33" stroke="#222b33"></path><path d="M478.8 227L390.3 220L464.8 295Z" fill="#485460" stroke="#485460"></path><path d="M592.2 326L571.7 243L525.2 292Z" fill="#485460" stroke="#485460"></path><path d="M523.2 459L562.7 409L467.8 400Z" fill="#2a343c" stroke="#2a343c"></path><path d="M620.2 400L633.2 356L592.2 326Z" fill="#323d46" stroke="#323d46"></path><path d="M328.8 283L327.8 316L375.3 290Z" fill="#3b4650" stroke="#3b4650"></path><path d="M375.3 290L327.8 316L369.3 363Z" fill="#323d46" stroke="#323d46"></path><path d="M369.3 363L328.8 425L397.3 438Z" fill="#434f5b" stroke="#434f5b"></path><path d="M503.2 473L523.2 459L467.8 400Z" fill="#3b4650" stroke="#3b4650"></path><path d="M513.2 166L478.8 227L543.7 227Z" fill="#2e3841" stroke="#2e3841"></path><path d="M513.2 166L478.2 184L478.8 227Z" fill="#2a343c" stroke="#2a343c"></path><path d="M342.8 239L328.8 283L375.3 290Z" fill="#2a343c" stroke="#2a343c"></path><path d="M423.8 485L503.2 473L467.8 400Z" fill="#36424b" stroke="#36424b"></path><path d="M365.8 161L342.8 239L390.3 220Z" fill="#36424b" stroke="#36424b"></path><path d="M390.3 220L342.8 239L375.3 290Z" fill="#1e272e" stroke="#1e272e"></path><path d="M269.4 377L321.8 375L327.8 316Z" fill="#36424b" stroke="#36424b"></path><path d="M327.8 316L321.8 375L369.3 363Z" fill="#3f4b55" stroke="#3f4b55"></path><path d="M410.3 510L423.8 485L397.3 438Z" fill="#2a343c" stroke="#2a343c"></path><path d="M397.3 438L423.8 485L467.8 400Z" fill="#2e3841" stroke="#2e3841"></path><path d="M620.2 400L547.7 351L562.7 409Z" fill="#485460" stroke="#485460"></path><path d="M592.2 326L641.2 294L571.7 243Z" fill="#263037" stroke="#263037"></path><path d="M565.7 421L620.2 400L562.7 409Z" fill="#485460" stroke="#485460"></path><path d="M661.6 451L620.2 400L565.7 421Z" fill="#222b33" stroke="#222b33"></path><path d="M549.7 513L565.7 421L523.2 459Z" fill="#222b33" stroke="#222b33"></path><path d="M591.7 178L513.2 166L543.7 227Z" fill="#323d46" stroke="#323d46"></path><path d="M478.2 184L423.3 163L478.8 227Z" fill="#434f5b" stroke="#434f5b"></path><path d="M513.2 166L449.8 159L478.2 184Z" fill="#3f4b55" stroke="#3f4b55"></path><path d="M321.8 375L328.8 425L369.3 363Z" fill="#3b4650" stroke="#3b4650"></path><path d="M449.8 159L423.3 163L478.2 184Z" fill="#2e3841" stroke="#2e3841"></path><path d="M633.2 356L641.2 294L592.2 326Z" fill="#222b33" stroke="#222b33"></path><path d="M571.7 243L591.7 178L543.7 227Z" fill="#222b33" stroke="#222b33"></path><path d="M341.8 509L410.3 510L397.3 438Z" fill="#3f4b55" stroke="#3f4b55"></path><path d="M423.8 485L423.8 540L503.2 473Z" fill="#3f4b55" stroke="#3f4b55"></path><path d="M657.6 214L591.7 178L571.7 243Z" fill="#2a343c" stroke="#2a343c"></path><path d="M365.8 123L365.8 161L423.3 163Z" fill="#2e3841" stroke="#2e3841"></path><path d="M423.3 163L365.8 161L390.3 220Z" fill="#1e272e" stroke="#1e272e"></path><path d="M342.8 239L267.4 290L328.8 283Z" fill="#3f4b55" stroke="#3f4b55"></path><path d="M536.2 540L549.7 513L503.2 473Z" fill="#2e3841" stroke="#2e3841"></path><path d="M503.2 473L549.7 513L523.2 459Z" fill="#2a343c" stroke="#2a343c"></path><path d="M691.6 403L670.6 344L633.2 356Z" fill="#3f4b55" stroke="#3f4b55"></path><path d="M633.2 356L670.6 344L641.2 294Z" fill="#3b4650" stroke="#3b4650"></path><path d="M641.2 294L657.6 214L571.7 243Z" fill="#1e272e" stroke="#1e272e"></path><path d="M691.6 403L633.2 356L620.2 400Z" fill="#434f5b" stroke="#434f5b"></path><path d="M242.9 272L267.4 290L342.8 239Z" fill="#434f5b" stroke="#434f5b"></path><path d="M328.8 283L267.4 290L327.8 316Z" fill="#1e272e" stroke="#1e272e"></path><path d="M321.8 375L286.4 434L328.8 425Z" fill="#2a343c" stroke="#2a343c"></path><path d="M250.4 324L269.4 377L327.8 316Z" fill="#3b4650" stroke="#3b4650"></path><path d="M328.8 425L341.8 509L397.3 438Z" fill="#1e272e" stroke="#1e272e"></path><path d="M269.4 377L286.4 434L321.8 375Z" fill="#3b4650" stroke="#3b4650"></path><path d="M369.3 540L423.8 540L410.3 510Z" fill="#3f4b55" stroke="#3f4b55"></path><path d="M410.3 510L423.8 540L423.8 485Z" fill="#222b33" stroke="#222b33"></path><path d="M267.4 290L250.4 324L327.8 316Z" fill="#263037" stroke="#263037"></path><path d="M269.4 377L216.9 425L286.4 434Z" fill="#36424b" stroke="#36424b"></path><path d="M208.9 459L294.4 463L286.4 434Z" fill="#222b33" stroke="#222b33"></path><path d="M286.4 434L294.4 463L328.8 425Z" fill="#323d46" stroke="#323d46"></path><path d="M696.6 255L657.6 214L641.2 294Z" fill="#323d46" stroke="#323d46"></path><path d="M294.4 463L341.8 509L328.8 425Z" fill="#3f4b55" stroke="#3f4b55"></path><path d="M423.8 540L536.2 540L503.2 473Z" fill="#2e3841" stroke="#2e3841"></path><path d="M619.2 512L661.6 451L565.7 421Z" fill="#3f4b55" stroke="#3f4b55"></path><path d="M267.4 290L244.9 314L250.4 324Z" fill="#222b33" stroke="#222b33"></path><path d="M250.4 324L201.9 353L269.4 377Z" fill="#3b4650" stroke="#3b4650"></path><path d="M242.9 272L244.9 314L267.4 290Z" fill="#2e3841" stroke="#2e3841"></path><path d="M652.2 185L594.2 137L591.7 178Z" fill="#263037" stroke="#263037"></path><path d="M591.7 178L594.2 137L513.2 166Z" fill="#434f5b" stroke="#434f5b"></path><path d="M513.2 166L501.2 101L449.8 159Z" fill="#434f5b" stroke="#434f5b"></path><path d="M393.3 100L365.8 123L423.3 163Z" fill="#36424b" stroke="#36424b"></path><path d="M619.2 512L565.7 421L549.7 513Z" fill="#434f5b" stroke="#434f5b"></path><path d="M393.3 100L423.3 163L419.8 89Z" fill="#2e3841" stroke="#2e3841"></path><path d="M251.4 193L242.9 272L342.8 239Z" fill="#434f5b" stroke="#434f5b"></path><path d="M594.2 137L501.2 101L513.2 166Z" fill="#36424b" stroke="#36424b"></path><path d="M282.4 167L342.8 239L365.8 161Z" fill="#323d46" stroke="#323d46"></path><path d="M657.6 214L652.2 185L591.7 178Z" fill="#3f4b55" stroke="#3f4b55"></path><path d="M343.8 540L369.3 540L341.8 509Z" fill="#222b33" stroke="#222b33"></path><path d="M341.8 509L369.3 540L410.3 510Z" fill="#222b33" stroke="#222b33"></path><path d="M661.6 451L691.6 403L620.2 400Z" fill="#323d46" stroke="#323d46"></path><path d="M670.6 344L696.6 255L641.2 294Z" fill="#36424b" stroke="#36424b"></path><path d="M591.7 540L619.2 512L549.7 513Z" fill="#485460" stroke="#485460"></path><path d="M750.1 292L696.6 255L670.6 344Z" fill="#485460" stroke="#485460"></path><path d="M747.1 188L673.6 142L652.2 185Z" fill="#323d46" stroke="#323d46"></path><path d="M419.8 89L423.3 163L449.8 159Z" fill="#36424b" stroke="#36424b"></path><path d="M501.2 101L419.8 89L449.8 159Z" fill="#3f4b55" stroke="#3f4b55"></path><path d="M536.2 540L591.7 540L549.7 513Z" fill="#434f5b" stroke="#434f5b"></path><path d="M260.4 540L343.8 540L341.8 509Z" fill="#1e272e" stroke="#1e272e"></path><path d="M273.4 130L282.4 167L365.8 123Z" fill="#2a343c" stroke="#2a343c"></path><path d="M365.8 123L282.4 167L365.8 161Z" fill="#1e272e" stroke="#1e272e"></path><path d="M591.7 540L595.2 540L619.2 512Z" fill="#323d46" stroke="#323d46"></path><path d="M282.4 167L251.4 193L342.8 239Z" fill="#3b4650" stroke="#3b4650"></path><path d="M251.4 193L224.9 236L242.9 272Z" fill="#36424b" stroke="#36424b"></path><path d="M187.4 296L201.9 353L244.9 314Z" fill="#434f5b" stroke="#434f5b"></path><path d="M187.4 296L244.9 314L242.9 272Z" fill="#434f5b" stroke="#434f5b"></path><path d="M244.9 314L201.9 353L250.4 324Z" fill="#3f4b55" stroke="#3f4b55"></path><path d="M294.4 463L260.4 540L341.8 509Z" fill="#36424b" stroke="#36424b"></path><path d="M201.9 353L216.9 425L269.4 377Z" fill="#2a343c" stroke="#2a343c"></path><path d="M661.6 451L698.6 472L691.6 403Z" fill="#263037" stroke="#263037"></path><path d="M691.6 403L737.1 390L670.6 344Z" fill="#36424b" stroke="#36424b"></path><path d="M619.2 512L698.6 472L661.6 451Z" fill="#434f5b" stroke="#434f5b"></path><path d="M690.6 540L698.6 472L619.2 512Z" fill="#3f4b55" stroke="#3f4b55"></path><path d="M594.2 137L581.7 81L501.2 101Z" fill="#1e272e" stroke="#1e272e"></path><path d="M501.2 101L491.2 47L419.8 89Z" fill="#1e272e" stroke="#1e272e"></path><path d="M639.2 111L581.7 81L594.2 137Z" fill="#3f4b55" stroke="#3f4b55"></path><path d="M746.1 428L737.1 390L691.6 403Z" fill="#1e272e" stroke="#1e272e"></path><path d="M673.6 142L639.2 111L652.2 185Z" fill="#2e3841" stroke="#2e3841"></path><path d="M652.2 185L639.2 111L594.2 137Z" fill="#36424b" stroke="#36424b"></path><path d="M581.7 81L537.7 60L501.2 101Z" fill="#36424b" stroke="#36424b"></path><path d="M747.1 188L652.2 185L657.6 214Z" fill="#434f5b" stroke="#434f5b"></path><path d="M747.1 188L657.6 214L696.6 255Z" fill="#485460" stroke="#485460"></path><path d="M180.4 146L174.4 242L224.9 236Z" fill="#2e3841" stroke="#2e3841"></path><path d="M282.4 167L218.9 132L251.4 193Z" fill="#2e3841" stroke="#2e3841"></path><path d="M331.8 63L273.4 130L365.8 123Z" fill="#1e272e" stroke="#1e272e"></path><path d="M331.8 63L365.8 123L393.3 100Z" fill="#1e272e" stroke="#1e272e"></path><path d="M537.7 60L491.2 47L501.2 101Z" fill="#222b33" stroke="#222b33"></path><path d="M369.3 23L331.8 63L393.3 100Z" fill="#263037" stroke="#263037"></path><path d="M174.4 242L187.4 296L224.9 236Z" fill="#1e272e" stroke="#1e272e"></path><path d="M224.9 236L187.4 296L242.9 272Z" fill="#1e272e" stroke="#1e272e"></path><path d="M191.4 457L208.9 459L216.9 425Z" fill="#434f5b" stroke="#434f5b"></path><path d="M754.1 306L750.1 292L670.6 344Z" fill="#323d46" stroke="#323d46"></path><path d="M737.1 390L754.1 306L670.6 344Z" fill="#3b4650" stroke="#3b4650"></path><path d="M175.4 355L216.9 425L201.9 353Z" fill="#263037" stroke="#263037"></path><path d="M216.9 425L208.9 459L286.4 434Z" fill="#323d46" stroke="#323d46"></path><path d="M786.6 305L758.6 298L754.1 306Z" fill="#36424b" stroke="#36424b"></path><path d="M754.1 306L758.6 298L750.1 292Z" fill="#36424b" stroke="#36424b"></path><path d="M750.1 292L762.6 226L696.6 255Z" fill="#2a343c" stroke="#2a343c"></path><path d="M164.4 346L175.4 355L201.9 353Z" fill="#2e3841" stroke="#2e3841"></path><path d="M698.6 472L746.1 428L691.6 403Z" fill="#1e272e" stroke="#1e272e"></path><path d="M737.1 390L781.6 379L754.1 306Z" fill="#1e272e" stroke="#1e272e"></path><path d="M247.9 540L260.4 540L294.4 463Z" fill="#36424b" stroke="#36424b"></path><path d="M369.3 23L393.3 100L419.8 89Z" fill="#485460" stroke="#485460"></path><path d="M477.8 0L469.8 25L508.2 0Z" fill="#222b33" stroke="#222b33"></path><path d="M491.2 47L469.8 25L419.8 89Z" fill="#3f4b55" stroke="#3f4b55"></path><path d="M469.8 25L491.2 47L508.2 0Z" fill="#36424b" stroke="#36424b"></path><path d="M187.4 296L164.4 346L201.9 353Z" fill="#263037" stroke="#263037"></path><path d="M142.9 459L191.4 457L120.9 405Z" fill="#434f5b" stroke="#434f5b"></path><path d="M181.4 464L191.4 457L142.9 459Z" fill="#434f5b" stroke="#434f5b"></path><path d="M208.9 459L247.9 540L294.4 463Z" fill="#263037" stroke="#263037"></path><path d="M185.4 540L247.9 540L208.9 459Z" fill="#1e272e" stroke="#1e272e"></path><path d="M180.4 146L224.9 236L251.4 193Z" fill="#434f5b" stroke="#434f5b"></path><path d="M115.9 309L117.9 346L164.4 346Z" fill="#1e272e" stroke="#1e272e"></path><path d="M218.9 132L282.4 167L273.4 130Z" fill="#3b4650" stroke="#3b4650"></path><path d="M595.2 540L690.6 540L619.2 512Z" fill="#434f5b" stroke="#434f5b"></path><path d="M698.6 472L725.1 510L746.1 428Z" fill="#263037" stroke="#263037"></path><path d="M702.1 82L639.2 111L673.6 142Z" fill="#485460" stroke="#485460"></path><path d="M702.1 82L648.6 78L639.2 111Z" fill="#263037" stroke="#263037"></path><path d="M639.2 111L648.6 78L581.7 81Z" fill="#2a343c" stroke="#2a343c"></path><path d="M535.7 0L508.2 0L537.7 60Z" fill="#3b4650" stroke="#3b4650"></path><path d="M758.6 298L762.6 226L750.1 292Z" fill="#3b4650" stroke="#3b4650"></path><path d="M762.6 226L747.1 188L696.6 255Z" fill="#485460" stroke="#485460"></path><path d="M690.6 540L725.1 510L698.6 472Z" fill="#434f5b" stroke="#434f5b"></path><path d="M780.6 437L781.6 379L746.1 428Z" fill="#485460" stroke="#485460"></path><path d="M746.1 428L781.6 379L737.1 390Z" fill="#485460" stroke="#485460"></path><path d="M758.6 298L786.6 305L762.6 226Z" fill="#2e3841" stroke="#2e3841"></path><path d="M223.9 78L218.9 132L273.4 130Z" fill="#3f4b55" stroke="#3f4b55"></path><path d="M191.4 457L216.9 425L120.9 405Z" fill="#36424b" stroke="#36424b"></path><path d="M191.4 457L181.4 464L208.9 459Z" fill="#323d46" stroke="#323d46"></path><path d="M781.6 379L786.6 305L754.1 306Z" fill="#323d46" stroke="#323d46"></path><path d="M403.3 0L369.3 23L419.8 89Z" fill="#2a343c" stroke="#2a343c"></path><path d="M245.9 51L223.9 78L273.4 130Z" fill="#2a343c" stroke="#2a343c"></path><path d="M747.1 188L718.1 122L673.6 142Z" fill="#434f5b" stroke="#434f5b"></path><path d="M762.6 226L765.1 190L747.1 188Z" fill="#485460" stroke="#485460"></path><path d="M747.1 188L786.6 165L718.1 122Z" fill="#36424b" stroke="#36424b"></path><path d="M786.6 165L765.1 190L849.1 231Z" fill="#485460" stroke="#485460"></path><path d="M508.2 0L491.2 47L537.7 60Z" fill="#434f5b" stroke="#434f5b"></path><path d="M469.8 25L403.3 0L419.8 89Z" fill="#2e3841" stroke="#2e3841"></path><path d="M596.2 0L537.7 60L581.7 81Z" fill="#2a343c" stroke="#2a343c"></path><path d="M725.1 510L780.6 437L746.1 428Z" fill="#485460" stroke="#485460"></path><path d="M832.1 331L819.1 286L786.6 305Z" fill="#1e272e" stroke="#1e272e"></path><path d="M672.6 23L630.2 39L648.6 78Z" fill="#1e272e" stroke="#1e272e"></path><path d="M648.6 78L630.2 39L581.7 81Z" fill="#36424b" stroke="#36424b"></path><path d="M477.8 0L403.3 0L469.8 25Z" fill="#222b33" stroke="#222b33"></path><path d="M596.2 0L535.7 0L537.7 60Z" fill="#3f4b55" stroke="#3f4b55"></path><path d="M718.1 122L702.1 82L673.6 142Z" fill="#485460" stroke="#485460"></path><path d="M788.6 59L702.1 82L718.1 122Z" fill="#2e3841" stroke="#2e3841"></path><path d="M690.6 540L735.1 540L725.1 510Z" fill="#323d46" stroke="#323d46"></path><path d="M725.1 510L793.6 513L780.6 437Z" fill="#222b33" stroke="#222b33"></path><path d="M198.4 84L180.4 146L218.9 132Z" fill="#434f5b" stroke="#434f5b"></path><path d="M218.9 132L180.4 146L251.4 193Z" fill="#3f4b55" stroke="#3f4b55"></path><path d="M120.9 405L175.4 355L164.4 346Z" fill="#3f4b55" stroke="#3f4b55"></path><path d="M356.8 0L331.8 63L369.3 23Z" fill="#485460" stroke="#485460"></path><path d="M403.3 0L356.8 0L369.3 23Z" fill="#36424b" stroke="#36424b"></path><path d="M245.9 51L273.4 130L331.8 63Z" fill="#36424b" stroke="#36424b"></path><path d="M120.9 405L216.9 425L175.4 355Z" fill="#2a343c" stroke="#2a343c"></path><path d="M181.4 464L185.4 540L208.9 459Z" fill="#485460" stroke="#485460"></path><path d="M164.4 346L187.4 296L115.9 309Z" fill="#3b4650" stroke="#3b4650"></path><path d="M115.9 309L187.4 296L174.4 242Z" fill="#1e272e" stroke="#1e272e"></path><path d="M630.2 39L596.2 0L581.7 81Z" fill="#1e272e" stroke="#1e272e"></path><path d="M677.6 0L596.2 0L630.2 39Z" fill="#263037" stroke="#263037"></path><path d="M832.1 331L786.6 305L781.6 379Z" fill="#3f4b55" stroke="#3f4b55"></path><path d="M786.6 305L819.1 286L762.6 226Z" fill="#323d46" stroke="#323d46"></path><path d="M103.9 225L115.9 309L174.4 242Z" fill="#3f4b55" stroke="#3f4b55"></path><path d="M142.9 459L185.4 540L181.4 464Z" fill="#36424b" stroke="#36424b"></path><path d="M255.4 27L245.9 51L331.8 63Z" fill="#3f4b55" stroke="#3f4b55"></path><path d="M80.5 381L120.9 405L117.9 346Z" fill="#263037" stroke="#263037"></path><path d="M117.9 346L120.9 405L164.4 346Z" fill="#222b33" stroke="#222b33"></path><path d="M849.1 231L765.1 190L762.6 226Z" fill="#2e3841" stroke="#2e3841"></path><path d="M765.1 190L786.6 165L747.1 188Z" fill="#2e3841" stroke="#2e3841"></path><path d="M858.1 389L832.1 331L781.6 379Z" fill="#36424b" stroke="#36424b"></path><path d="M819.1 286L849.1 231L762.6 226Z" fill="#3f4b55" stroke="#3f4b55"></path><path d="M843.1 432L781.6 379L780.6 437Z" fill="#3b4650" stroke="#3b4650"></path><path d="M223.9 78L198.4 84L218.9 132Z" fill="#3b4650" stroke="#3b4650"></path><path d="M180.4 146L103.9 225L174.4 242Z" fill="#485460" stroke="#485460"></path><path d="M181.4 38L198.4 84L223.9 78Z" fill="#2a343c" stroke="#2a343c"></path><path d="M677.6 0L672.6 23L735.1 0Z" fill="#1e272e" stroke="#1e272e"></path><path d="M702.1 82L672.6 23L648.6 78Z" fill="#2a343c" stroke="#2a343c"></path><path d="M263.4 0L255.4 27L331.8 63Z" fill="#2e3841" stroke="#2e3841"></path><path d="M245.9 51L181.4 38L223.9 78Z" fill="#434f5b" stroke="#434f5b"></path><path d="M735.1 540L793.6 513L725.1 510Z" fill="#263037" stroke="#263037"></path><path d="M86.9 178L103.9 225L180.4 146Z" fill="#2a343c" stroke="#2a343c"></path><path d="M115.9 309L70.5 321L117.9 346Z" fill="#2e3841" stroke="#2e3841"></path><path d="M103.9 225L87.9 288L115.9 309Z" fill="#434f5b" stroke="#434f5b"></path><path d="M735.1 540L790.6 540L793.6 513Z" fill="#36424b" stroke="#36424b"></path><path d="M793.6 513L843.1 432L780.6 437Z" fill="#222b33" stroke="#222b33"></path><path d="M356.8 0L263.4 0L331.8 63Z" fill="#2a343c" stroke="#2a343c"></path><path d="M193.9 0L181.4 38L245.9 51Z" fill="#263037" stroke="#263037"></path><path d="M868.1 511L843.1 432L793.6 513Z" fill="#263037" stroke="#263037"></path><path d="M735.1 0L672.6 23L702.1 82Z" fill="#2e3841" stroke="#2e3841"></path><path d="M672.6 23L677.6 0L630.2 39Z" fill="#3b4650" stroke="#3b4650"></path><path d="M103.9 225L80.5 283L87.9 288Z" fill="#263037" stroke="#263037"></path><path d="M70.5 321L80.5 381L117.9 346Z" fill="#485460" stroke="#485460"></path><path d="M70.5 321L115.9 309L87.9 288Z" fill="#36424b" stroke="#36424b"></path><path d="M120.9 405L80.5 448L142.9 459Z" fill="#2e3841" stroke="#2e3841"></path><path d="M142.9 459L121.9 540L185.4 540Z" fill="#2e3841" stroke="#2e3841"></path><path d="M894.5 295L849.1 231L819.1 286Z" fill="#3f4b55" stroke="#3f4b55"></path><path d="M786.6 165L794.6 107L718.1 122Z" fill="#222b33" stroke="#222b33"></path><path d="M878.5 213L849.1 231L894.5 295Z" fill="#3b4650" stroke="#3b4650"></path><path d="M866.1 179L794.6 107L786.6 165Z" fill="#485460" stroke="#485460"></path><path d="M843.1 432L858.1 389L781.6 379Z" fill="#2a343c" stroke="#2a343c"></path><path d="M80.5 283L70.5 321L87.9 288Z" fill="#36424b" stroke="#36424b"></path><path d="M59.5 483L80.5 448L0 430Z" fill="#3f4b55" stroke="#3f4b55"></path><path d="M80.5 381L80.5 448L120.9 405Z" fill="#222b33" stroke="#222b33"></path><path d="M59.5 483L121.9 540L142.9 459Z" fill="#3b4650" stroke="#3b4650"></path><path d="M193.9 0L245.9 51L255.4 27Z" fill="#2a343c" stroke="#2a343c"></path><path d="M198.4 84L135.9 91L180.4 146Z" fill="#485460" stroke="#485460"></path><path d="M181.4 38L135.9 91L198.4 84Z" fill="#222b33" stroke="#222b33"></path><path d="M103.9 225L55.5 218L80.5 283Z" fill="#263037" stroke="#263037"></path><path d="M135.9 91L86.9 178L180.4 146Z" fill="#434f5b" stroke="#434f5b"></path><path d="M0 285L0 354L70.5 321Z" fill="#222b33" stroke="#222b33"></path><path d="M857.1 88L788.6 59L794.6 107Z" fill="#434f5b" stroke="#434f5b"></path><path d="M794.6 107L788.6 59L718.1 122Z" fill="#222b33" stroke="#222b33"></path><path d="M788.6 59L735.1 0L702.1 82Z" fill="#222b33" stroke="#222b33"></path><path d="M878.5 213L866.1 179L849.1 231Z" fill="#434f5b" stroke="#434f5b"></path><path d="M849.1 231L866.1 179L786.6 165Z" fill="#36424b" stroke="#36424b"></path><path d="M894.5 295L819.1 286L832.1 331Z" fill="#3b4650" stroke="#3b4650"></path><path d="M900.5 453L897.5 353L858.1 389Z" fill="#222b33" stroke="#222b33"></path><path d="M790.6 540L838.1 540L793.6 513Z" fill="#434f5b" stroke="#434f5b"></path><path d="M897.5 353L832.1 331L858.1 389Z" fill="#434f5b" stroke="#434f5b"></path><path d="M897.5 353L894.5 295L832.1 331Z" fill="#3f4b55" stroke="#3f4b55"></path><path d="M86.9 178L55.5 218L103.9 225Z" fill="#1e272e" stroke="#1e272e"></path><path d="M0 430L80.5 448L80.5 381Z" fill="#323d46" stroke="#323d46"></path><path d="M27.5 136L55.5 218L86.9 178Z" fill="#3b4650" stroke="#3b4650"></path><path d="M263.4 0L193.9 0L255.4 27Z" fill="#2e3841" stroke="#2e3841"></path><path d="M181.4 38L117.9 62L135.9 91Z" fill="#323d46" stroke="#323d46"></path><path d="M900.5 453L858.1 389L843.1 432Z" fill="#323d46" stroke="#323d46"></path><path d="M80.5 448L59.5 483L142.9 459Z" fill="#1e272e" stroke="#1e272e"></path><path d="M0 354L80.5 381L70.5 321Z" fill="#36424b" stroke="#36424b"></path><path d="M838.1 540L868.1 511L793.6 513Z" fill="#323d46" stroke="#323d46"></path><path d="M164.4 0L117.9 62L181.4 38Z" fill="#2e3841" stroke="#2e3841"></path><path d="M28.5 114L27.5 136L86.9 178Z" fill="#3b4650" stroke="#3b4650"></path><path d="M193.9 0L164.4 0L181.4 38Z" fill="#1e272e" stroke="#1e272e"></path><path d="M894.5 484L900.5 453L843.1 432Z" fill="#485460" stroke="#485460"></path><path d="M868.1 511L894.5 484L843.1 432Z" fill="#36424b" stroke="#36424b"></path><path d="M960 330L894.5 295L897.5 353Z" fill="#222b33" stroke="#222b33"></path><path d="M960 330L920.5 280L894.5 295Z" fill="#323d46" stroke="#323d46"></path><path d="M894.5 295L920.5 280L878.5 213Z" fill="#1e272e" stroke="#1e272e"></path><path d="M878.5 213L889.5 153L866.1 179Z" fill="#2e3841" stroke="#2e3841"></path><path d="M960 188L889.5 153L878.5 213Z" fill="#3b4650" stroke="#3b4650"></path><path d="M866.1 179L857.1 88L794.6 107Z" fill="#222b33" stroke="#222b33"></path><path d="M788.6 59L819.6 0L735.1 0Z" fill="#434f5b" stroke="#434f5b"></path><path d="M887.5 116L857.1 88L866.1 179Z" fill="#323d46" stroke="#323d46"></path><path d="M0 285L80.5 283L55.5 218Z" fill="#2a343c" stroke="#2a343c"></path><path d="M0 285L70.5 321L80.5 283Z" fill="#2e3841" stroke="#2e3841"></path><path d="M960 132L887.5 116L889.5 153Z" fill="#485460" stroke="#485460"></path><path d="M889.5 153L887.5 116L866.1 179Z" fill="#434f5b" stroke="#434f5b"></path><path d="M0 354L0 362L80.5 381Z" fill="#434f5b" stroke="#434f5b"></path><path d="M0 186L0 285L55.5 218Z" fill="#2a343c" stroke="#2a343c"></path><path d="M887.5 116L871.5 68L857.1 88Z" fill="#323d46" stroke="#323d46"></path><path d="M857.1 88L872.1 42L788.6 59Z" fill="#485460" stroke="#485460"></path><path d="M0 362L0 430L80.5 381Z" fill="#434f5b" stroke="#434f5b"></path><path d="M59.5 483L24.5 540L121.9 540Z" fill="#485460" stroke="#485460"></path><path d="M872.1 42L819.6 0L788.6 59Z" fill="#263037" stroke="#263037"></path><path d="M28.5 114L135.9 91L117.9 62Z" fill="#3f4b55" stroke="#3f4b55"></path><path d="M28.5 114L86.9 178L135.9 91Z" fill="#36424b" stroke="#36424b"></path><path d="M960 436L960 376L900.5 453Z" fill="#434f5b" stroke="#434f5b"></path><path d="M960 376L960 330L897.5 353Z" fill="#222b33" stroke="#222b33"></path><path d="M868.1 511L900.5 540L894.5 484Z" fill="#3b4650" stroke="#3b4650"></path><path d="M838.1 540L900.5 540L868.1 511Z" fill="#36424b" stroke="#36424b"></path><path d="M164.4 0L109.9 0L117.9 62Z" fill="#222b33" stroke="#222b33"></path><path d="M39.5 59L28.5 114L117.9 62Z" fill="#3b4650" stroke="#3b4650"></path><path d="M27.5 136L0 186L55.5 218Z" fill="#222b33" stroke="#222b33"></path><path d="M0 152L0 186L27.5 136Z" fill="#323d46" stroke="#323d46"></path><path d="M0 430L0 476L59.5 483Z" fill="#36424b" stroke="#36424b"></path><path d="M960 376L897.5 353L900.5 453Z" fill="#1e272e" stroke="#1e272e"></path><path d="M920.5 280L960 198L878.5 213Z" fill="#485460" stroke="#485460"></path><path d="M960 70L872.1 42L871.5 68Z" fill="#263037" stroke="#263037"></path><path d="M0 476L24.5 540L59.5 483Z" fill="#323d46" stroke="#323d46"></path><path d="M960 436L900.5 453L960 461Z" fill="#3b4650" stroke="#3b4650"></path><path d="M871.5 68L872.1 42L857.1 88Z" fill="#36424b" stroke="#36424b"></path><path d="M960 70L871.5 68L887.5 116Z" fill="#2a343c" stroke="#2a343c"></path><path d="M960 330L960 267L920.5 280Z" fill="#36424b" stroke="#36424b"></path><path d="M0 113L27.5 136L28.5 114Z" fill="#222b33" stroke="#222b33"></path><path d="M0 113L0 152L27.5 136Z" fill="#1e272e" stroke="#1e272e"></path><path d="M960 461L900.5 453L894.5 484Z" fill="#263037" stroke="#263037"></path><path d="M52.5 0L39.5 59L117.9 62Z" fill="#263037" stroke="#263037"></path><path d="M960 267L960 198L920.5 280Z" fill="#222b33" stroke="#222b33"></path><path d="M960 540L960 461L894.5 484Z" fill="#3b4650" stroke="#3b4650"></path><path d="M932.5 0L859.1 0L872.1 42Z" fill="#2e3841" stroke="#2e3841"></path><path d="M872.1 42L859.1 0L819.6 0Z" fill="#1e272e" stroke="#1e272e"></path><path d="M960 198L960 188L878.5 213Z" fill="#222b33" stroke="#222b33"></path><path d="M0 476L0 540L24.5 540Z" fill="#434f5b" stroke="#434f5b"></path><path d="M0 73L0 113L28.5 114Z" fill="#434f5b" stroke="#434f5b"></path><path d="M960 188L960 132L889.5 153Z" fill="#36424b" stroke="#36424b"></path><path d="M109.9 0L52.5 0L117.9 62Z" fill="#434f5b" stroke="#434f5b"></path><path d="M39.5 59L0 73L28.5 114Z" fill="#263037" stroke="#263037"></path><path d="M0 0L0 73L39.5 59Z" fill="#434f5b" stroke="#434f5b"></path><path d="M900.5 540L960 540L894.5 484Z" fill="#1e272e" stroke="#1e272e"></path><path d="M960 132L960 70L887.5 116Z" fill="#263037" stroke="#263037"></path><path d="M960 70L932.5 0L872.1 42Z" fill="#263037" stroke="#263037"></path><path d="M52.5 0L0 0L39.5 59Z" fill="#3b4650" stroke="#3b4650"></path><path d="M960 70L960 0L932.5 0Z" fill="#323d46" stroke="#323d46"></path></g></svg>